<svg xmlns="http://www.w3.org/2000/svg" width="99" height="120" viewBox="0 0 99 120" fill="none"><g clip-path="url(#clip0_50_12)"><path d="M67.6767 10.7974C55.9249 10.7974 51.9144 16.8813 45.0412 25.6844C38.1681 16.8813 34.1504 10.7974 22.4058 10.7974C9.80031 10.7974 1.48511 20.0883 1.48511 34.0211C1.48511 38.6988 2.57563 43.6851 4.92885 48.6713V64.7923C4.92885 66.0909 5.98349 67.1384 7.2749 67.1384C8.5663 67.1384 9.62094 66.0837 9.62094 64.7923V56.348C10.4675 57.46 11.3787 58.5577 12.3688 59.6483L21.9682 70.3238V89.9029C21.9682 91.2015 23.0157 92.249 24.3214 92.249C25.6272 92.249 26.6675 91.2015 26.6675 89.9029V75.5469L45.0412 96.0012L53.2847 86.8395V104.682C53.2847 105.981 54.3393 107.028 55.6379 107.028C56.9365 107.028 57.984 105.981 57.984 104.682V81.6164L70.1375 68.0711V84.9741C70.1375 86.2727 71.1921 87.3201 72.4907 87.3201C73.7893 87.3201 74.8368 86.2655 74.8368 84.9741V62.8409L77.6994 59.6554C85.29 51.3331 88.583 42.2071 88.583 34.0354C88.583 20.1026 80.275 10.8189 67.6623 10.8189L67.6767 10.7974Z" fill="#EA0029"></path><path d="M16.6949 76.1639C16.6949 74.1192 15.0376 72.4619 12.9857 72.4619C10.9338 72.4619 9.28369 74.1192 9.28369 76.1639C9.28369 78.2087 10.941 79.866 12.9857 79.866C15.0304 79.866 16.6949 78.2087 16.6949 76.1639Z" fill="#EA0029"></path><path d="M82.1762 64.8213C80.8776 64.8213 79.823 65.8759 79.823 67.1745C79.823 68.4731 80.8776 69.5277 82.1762 69.5277C83.4748 69.5277 84.5366 68.4731 84.5366 67.1745C84.5366 65.8759 83.4748 64.8213 82.1762 64.8213Z" fill="#EA0029"></path><path d="M59.2395 116.305C59.2395 114.253 57.5822 112.596 55.5375 112.596C53.4928 112.596 51.8354 114.246 51.8354 116.305C51.8354 118.364 53.4928 120 55.5375 120C57.5822 120 59.2395 118.343 59.2395 116.305Z" fill="#EA0029"></path><path d="M34.38 97.4434C34.38 96.1448 33.3254 95.083 32.0268 95.083C30.7282 95.083 29.6664 96.1448 29.6664 97.4434C29.6664 98.742 30.721 99.7966 32.0268 99.7966C33.3325 99.7966 34.38 98.742 34.38 97.4434Z" fill="#EA0029"></path><path d="M25.7993 102.774C25.7993 101.956 25.1321 101.289 24.3142 101.289C23.4963 101.289 22.8291 101.956 22.8291 102.774C22.8291 103.592 23.4892 104.266 24.3142 104.266C25.1393 104.266 25.7993 103.599 25.7993 102.774Z" fill="#EA0029"></path><path d="M98.3331 40.0191C98.3331 38.7205 97.2785 37.6587 95.9799 37.6587C94.6813 37.6587 93.6195 38.7205 93.6195 40.0191C93.6195 41.3177 94.6741 42.3723 95.9799 42.3723C97.2857 42.3723 98.3331 41.3177 98.3331 40.0191Z" fill="#EA0029"></path><path d="M1.48511 10.7256C0.667225 10.7256 0 11.3928 0 12.2107C0 13.0286 0.667225 13.703 1.48511 13.703C2.303 13.703 2.9774 13.0358 2.9774 12.2107C2.9774 11.3856 2.31018 10.7256 1.48511 10.7256Z" fill="#EA0029"></path><path d="M65.6462 2.94141C64.8284 2.94141 64.1611 3.60863 64.1611 4.42652C64.1611 5.24441 64.8284 5.91881 65.6462 5.91881C66.4641 5.91881 67.1385 5.25158 67.1385 4.42652C67.1385 3.60146 66.4713 2.94141 65.6462 2.94141Z" fill="#EA0029"></path><path d="M81.7673 3.7092C81.7673 1.6573 80.11 0 78.0653 0C76.0206 0 74.3633 1.65013 74.3633 3.7092C74.3633 5.76827 76.0206 7.40404 78.0653 7.40404C80.11 7.40404 81.7673 5.74674 81.7673 3.7092Z" fill="#EA0029"></path><path d="M12.3919 47.0119C12.1306 46.3868 12 45.7173 12 45.0035C12 44.2897 12.1306 43.6226 12.3919 43.0021C12.6578 42.377 13.0147 41.8474 13.4626 41.4136C13.9104 40.9797 14.4399 40.6391 15.0511 40.3919C15.6669 40.14 16.3177 40.014 17.0035 40.014C18.7436 40.014 20.0429 40.6578 20.9013 41.9454L19.7397 42.7782C19.4551 42.3396 19.0819 41.9967 18.62 41.7495C18.1582 41.5022 17.6193 41.3786 17.0035 41.3786C15.9958 41.3786 15.1677 41.7215 14.5192 42.4073C13.8754 43.0931 13.5535 43.9585 13.5535 45.0035C13.5535 46.0485 13.8778 46.9163 14.5262 47.6067C15.1747 48.2972 16.0005 48.6424 17.0035 48.6424C18.2351 48.6424 19.1962 48.1316 19.8866 47.1099L21.0483 47.9216C20.6144 48.5794 20.0546 49.0903 19.3688 49.4542C18.683 49.8181 17.8946 50 17.0035 50C16.3177 50 15.6669 49.8764 15.0511 49.6291C14.4399 49.3772 13.9104 49.0343 13.4626 48.6004C13.0147 48.1619 12.6578 47.6324 12.3919 47.0119Z" fill="white"></path><path d="M22.2449 45.0035C22.2449 44.2897 22.3756 43.6226 22.6368 43.0021C22.9027 42.377 23.2596 41.8451 23.7075 41.4066C24.16 40.968 24.6942 40.6251 25.31 40.3779C25.9305 40.126 26.586 40 27.2764 40C27.9622 40 28.613 40.126 29.2288 40.3779C29.8446 40.6251 30.3765 40.968 30.8244 41.4066C31.2769 41.8404 31.6338 42.37 31.895 42.9951C32.161 43.6202 32.2939 44.2897 32.2939 45.0035C32.2939 45.9552 32.07 46.8136 31.6221 47.5787C31.1742 48.3438 30.5678 48.9387 29.8027 49.3632C29.0376 49.7877 28.1955 50 27.2764 50C26.3527 50 25.5083 49.7877 24.7432 49.3632C23.9781 48.9387 23.3693 48.3438 22.9167 47.5787C22.4689 46.8136 22.2449 45.9552 22.2449 45.0035ZM24.7782 42.4003C24.125 43.0907 23.7985 43.9585 23.7985 45.0035C23.7985 46.0485 24.125 46.9163 24.7782 47.6067C25.4313 48.2972 26.2641 48.6424 27.2764 48.6424C28.2888 48.6424 29.1192 48.2972 29.7677 47.6067C30.4208 46.9163 30.7474 46.0485 30.7474 45.0035C30.7474 43.9585 30.4208 43.0907 29.7677 42.4003C29.1192 41.7052 28.2888 41.3576 27.2764 41.3576C26.2641 41.3576 25.4313 41.7052 24.7782 42.4003Z" fill="white"></path><path d="M34.1973 49.874V40.028H34.3513L39.0119 45.4724L43.6305 40.028H43.7845V49.874H42.3359V44.8146C42.3359 44.7166 42.3382 44.6023 42.3429 44.4717C42.3476 44.341 42.3522 44.2174 42.3569 44.1008C42.3616 43.9841 42.3662 43.8745 42.3709 43.7719C42.3756 43.6692 42.3802 43.5876 42.3849 43.5269C42.3896 43.4616 42.3919 43.4266 42.3919 43.422C42.3872 43.4266 42.3382 43.4966 42.2449 43.6319C42.1563 43.7625 42.0397 43.9235 41.895 44.1148C41.7551 44.3014 41.6291 44.4577 41.5171 44.5836L39.0679 47.5367H38.8999L36.4437 44.5836C36.3597 44.4903 36.2664 44.376 36.1638 44.2407C36.0611 44.1008 35.9725 43.9771 35.8978 43.8698C35.8232 43.7625 35.7532 43.6622 35.6879 43.5689C35.6272 43.4756 35.5946 43.4266 35.5899 43.422C35.5899 43.4266 35.5923 43.4616 35.5969 43.5269C35.6016 43.5876 35.6063 43.6692 35.6109 43.7719C35.6156 43.8745 35.6202 43.9841 35.6249 44.1008C35.6296 44.2174 35.6342 44.341 35.6389 44.4717C35.6436 44.6023 35.6459 44.7166 35.6459 44.8146V49.874H34.1973Z" fill="white"></path><path d="M46.1358 49.874V40.126H52.3289V41.4626H47.6543V44.3247H51.7971V45.6333H47.6543V48.5444H52.5248V49.874H46.1358Z" fill="white"></path><path d="M54.5472 49.874V40.028H54.7502L60.1246 45.8013C60.2365 45.9179 60.3672 46.0672 60.5164 46.2491C60.6657 46.4311 60.7894 46.585 60.8873 46.711L61.0273 46.8929C60.9573 46.3191 60.9223 45.8502 60.9223 45.4864V40.126H62.3289V49.972H62.14L56.7656 44.1847C56.6536 44.0634 56.5206 43.9118 56.3667 43.7299C56.2127 43.5479 56.0868 43.3963 55.9888 43.275L55.8488 43.0931C55.9188 43.6296 55.9538 44.0984 55.9538 44.4997V49.874H54.5472Z" fill="white"></path><path d="M63.9664 41.4626V40.126H71.2582V41.4626H68.3611V49.874H66.8565V41.4626H63.9664Z" fill="white"></path><path d="M70.9153 49.874L75.0861 40.028H75.261L79.5297 49.874H77.9552L77.2414 48.0966H73.0987L72.3779 49.874H70.9153ZM73.6095 46.8369H76.6956L75.6319 44.1847C75.5666 44.0261 75.4943 43.8325 75.415 43.6039C75.3403 43.3753 75.2774 43.184 75.226 43.0301C75.1794 42.8715 75.1537 42.7782 75.1491 42.7502C75.1491 42.7548 75.1374 42.7922 75.1141 42.8621C75.0954 42.9275 75.0697 43.0114 75.0371 43.1141C75.0091 43.2167 74.9764 43.3287 74.9391 43.45C74.9018 43.5666 74.8575 43.6926 74.8062 43.8279C74.7595 43.9631 74.7152 44.0821 74.6732 44.1847L73.6095 46.8369Z" fill="white"></path></g><defs><clipPath id="clip0_50_12"><rect width="98.3331" height="120" fill="white"></rect></clipPath></defs></svg>