<svg xmlns="http://www.w3.org/2000/svg" width="99" height="120" viewBox="0 0 99 120" fill="none"><g clip-path="url(#clip0_12_159)"><path d="M67.6767 10.7974C55.9249 10.7974 51.9144 16.8813 45.0412 25.6844C38.1681 16.8813 34.1504 10.7974 22.4058 10.7974C9.80031 10.7974 1.48511 20.0883 1.48511 34.0211C1.48511 38.6988 2.57563 43.6851 4.92885 48.6713V64.7923C4.92885 66.0909 5.98349 67.1384 7.2749 67.1384C8.5663 67.1384 9.62094 66.0837 9.62094 64.7923V56.348C10.4675 57.46 11.3787 58.5577 12.3688 59.6483L21.9682 70.3238V89.9029C21.9682 91.2015 23.0157 92.249 24.3214 92.249C25.6272 92.249 26.6675 91.2015 26.6675 89.9029V75.5469L45.0412 96.0012L53.2847 86.8395V104.682C53.2847 105.981 54.3393 107.028 55.6379 107.028C56.9365 107.028 57.984 105.981 57.984 104.682V81.6164L70.1375 68.0711V84.9741C70.1375 86.2727 71.1921 87.3201 72.4907 87.3201C73.7893 87.3201 74.8368 86.2655 74.8368 84.9741V62.8409L77.6994 59.6554C85.29 51.3331 88.583 42.2071 88.583 34.0354C88.583 20.1026 80.275 10.8189 67.6623 10.8189L67.6767 10.7974Z" fill="#EA0029"></path><path d="M16.6949 76.1639C16.6949 74.1192 15.0376 72.4619 12.9857 72.4619C10.9338 72.4619 9.28369 74.1192 9.28369 76.1639C9.28369 78.2087 10.941 79.866 12.9857 79.866C15.0304 79.866 16.6949 78.2087 16.6949 76.1639Z" fill="#EA0029"></path><path d="M82.1762 64.8213C80.8776 64.8213 79.823 65.8759 79.823 67.1745C79.823 68.4731 80.8776 69.5277 82.1762 69.5277C83.4748 69.5277 84.5366 68.4731 84.5366 67.1745C84.5366 65.8759 83.4748 64.8213 82.1762 64.8213Z" fill="#EA0029"></path><path d="M59.2395 116.305C59.2395 114.253 57.5822 112.596 55.5375 112.596C53.4928 112.596 51.8354 114.246 51.8354 116.305C51.8354 118.364 53.4928 120 55.5375 120C57.5822 120 59.2395 118.343 59.2395 116.305Z" fill="#EA0029"></path><path d="M34.38 97.4434C34.38 96.1448 33.3254 95.083 32.0268 95.083C30.7282 95.083 29.6664 96.1448 29.6664 97.4434C29.6664 98.742 30.721 99.7966 32.0268 99.7966C33.3325 99.7966 34.38 98.742 34.38 97.4434Z" fill="#EA0029"></path><path d="M25.7993 102.774C25.7993 101.956 25.1321 101.289 24.3142 101.289C23.4963 101.289 22.8291 101.956 22.8291 102.774C22.8291 103.592 23.4892 104.266 24.3142 104.266C25.1393 104.266 25.7993 103.599 25.7993 102.774Z" fill="#EA0029"></path><path d="M98.3331 40.0191C98.3331 38.7205 97.2785 37.6587 95.9799 37.6587C94.6813 37.6587 93.6195 38.7205 93.6195 40.0191C93.6195 41.3177 94.6741 42.3723 95.9799 42.3723C97.2857 42.3723 98.3331 41.3177 98.3331 40.0191Z" fill="#EA0029"></path><path d="M1.48511 10.7256C0.667225 10.7256 0 11.3928 0 12.2107C0 13.0286 0.667225 13.703 1.48511 13.703C2.303 13.703 2.9774 13.0358 2.9774 12.2107C2.9774 11.3856 2.31018 10.7256 1.48511 10.7256Z" fill="#EA0029"></path><path d="M65.6462 2.94141C64.8284 2.94141 64.1611 3.60863 64.1611 4.42652C64.1611 5.24441 64.8284 5.91881 65.6462 5.91881C66.4641 5.91881 67.1385 5.25158 67.1385 4.42652C67.1385 3.60146 66.4713 2.94141 65.6462 2.94141Z" fill="#EA0029"></path><path d="M81.7673 3.7092C81.7673 1.6573 80.11 0 78.0653 0C76.0206 0 74.3633 1.65013 74.3633 3.7092C74.3633 5.76827 76.0206 7.40404 78.0653 7.40404C80.11 7.40404 81.7673 5.74674 81.7673 3.7092Z" fill="#EA0029"></path><path d="M16 49.8739V40.1121H19.2726C19.7865 40.1121 20.2537 40.1752 20.6741 40.3013C21.0993 40.4228 21.473 40.6073 21.7954 40.8549C22.1177 41.1025 22.3677 41.4272 22.5452 41.829C22.7274 42.2308 22.8185 42.6933 22.8185 43.2165C22.8185 43.922 22.641 44.5106 22.2859 44.9825C21.9355 45.4543 21.452 45.7977 20.8353 46.0126L23.1338 49.8739H21.3959L19.2866 46.2579H17.5207V49.8739H16ZM17.5207 44.9825H19.2165C20.576 44.9825 21.2558 44.3938 21.2558 43.2165C21.2558 42.0392 20.576 41.4506 19.2165 41.4506H17.5207V44.9825Z" fill="white"></path><path d="M24.8437 49.8739V40.1121H31.0455V41.4506H26.3644V44.3167H30.513V45.6272H26.3644V48.5424H31.2418V49.8739H24.8437Z" fill="white"></path><path d="M32.4611 47.9818L33.7085 47.288C33.9748 47.7272 34.2761 48.0659 34.6125 48.3041C34.9535 48.5377 35.3997 48.6545 35.9509 48.6545C36.4462 48.6545 36.8503 48.5331 37.1633 48.2901C37.481 48.0425 37.6398 47.7178 37.6398 47.316C37.6398 46.9189 37.5137 46.6036 37.2614 46.37C37.0138 46.1364 36.5957 45.8888 36.007 45.6272L35.3623 45.3399C34.5868 44.9988 34.0121 44.6157 33.6384 44.1906C33.2647 43.7608 33.0778 43.1908 33.0778 42.4807C33.0778 41.7519 33.3324 41.1563 33.8416 40.6938C34.3509 40.2313 35.0096 40 35.8178 40C36.4625 40 37.0091 40.1261 37.4576 40.3784C37.9061 40.626 38.2775 41.0114 38.5718 41.5347L37.3805 42.2705C37.189 41.9388 36.9741 41.6982 36.7358 41.5487C36.4975 41.3945 36.1915 41.3174 35.8178 41.3174C35.4347 41.3174 35.1287 41.4226 34.8998 41.6328C34.6709 41.843 34.5564 42.1163 34.5564 42.4527C34.5564 42.8031 34.6615 43.0834 34.8718 43.2936C35.082 43.5039 35.4464 43.7211 35.965 43.9453L36.5957 44.2327C37.4833 44.6204 38.1303 45.0432 38.5368 45.5011C38.9432 45.9542 39.1465 46.5545 39.1465 47.302C39.1465 48.1383 38.8521 48.797 38.2635 49.2782C37.6795 49.7594 36.918 50 35.979 50C35.1053 50 34.3742 49.8155 33.7856 49.4464C33.2016 49.0726 32.7601 48.5844 32.4611 47.9818Z" fill="white"></path><path d="M40.9895 49.8739V40.1121H47.1913V41.4506H42.5102V44.3167H46.6587V45.6272H42.5102V48.5424H47.3875V49.8739H40.9895Z" fill="white"></path><path d="M49.4128 49.8739V40.1121H52.6854C53.1993 40.1121 53.6664 40.1752 54.0869 40.3013C54.512 40.4228 54.8858 40.6073 55.2081 40.8549C55.5305 41.1025 55.7804 41.4272 55.958 41.829C56.1402 42.2308 56.2313 42.6933 56.2313 43.2165C56.2313 43.922 56.0537 44.5106 55.6987 44.9825C55.3483 45.4543 54.8648 45.7977 54.2481 46.0126L56.5466 49.8739H54.8087L52.6994 46.2579H50.9334V49.8739H49.4128ZM50.9334 44.9825H52.6293C53.9888 44.9825 54.6685 44.3938 54.6685 43.2165C54.6685 42.0392 53.9888 41.4506 52.6293 41.4506H50.9334V44.9825Z" fill="white"></path><path d="M57.1282 40.1121H58.754L60.9474 45.3539C61.0315 45.5454 61.1226 45.786 61.2207 46.0757C61.3188 46.3653 61.3959 46.6083 61.452 46.8045L61.5361 47.0918C61.7183 46.3723 61.9098 45.793 62.1107 45.3539L64.2761 40.1121H65.7547L61.5922 49.972H61.4099L57.1282 40.1121Z" fill="white"></path><path d="M65.0049 49.8739L69.1815 40.014H69.3567L73.6314 49.8739H72.0547L71.3399 48.0939H67.1913L66.4695 49.8739H65.0049ZM67.7029 46.8325H70.7933L69.7281 44.1766C69.6627 44.0178 69.5903 43.8239 69.5109 43.595C69.4361 43.366 69.373 43.1745 69.3217 43.0203C69.2749 42.8615 69.2492 42.768 69.2446 42.74C69.2446 42.7447 69.2329 42.7821 69.2095 42.8521C69.1908 42.9175 69.1651 43.0016 69.1324 43.1044C69.1044 43.2072 69.0717 43.3193 69.0343 43.4408C68.997 43.5576 68.9526 43.6837 68.9012 43.8192C68.8545 43.9547 68.8101 44.0738 68.768 44.1766L67.7029 46.8325Z" fill="white"></path></g><defs><clipPath id="clip0_12_159"><rect width="98.3331" height="120" fill="white"></rect></clipPath></defs></svg>