<?xml version="1.0" encoding="UTF-8"?>
<svg xmlns="http://www.w3.org/2000/svg" width="230" height="100" viewBox="0 0 230 100" fill="none">
  <mask id="mask0_2019_5247" style="mask-type:luminance" maskUnits="userSpaceOnUse" x="0" y="0" width="228" height="100">
    <path d="M227.807 0H0V100H227.807V0Z" fill="white"></path>
  </mask>
  <g mask="url(#mask0_2019_5247)">
    <path d="M139.643 34.6818C139.643 26.4135 135.074 21.3222 127.589 20.626V27.371C130.374 27.9803 131.418 30.069 131.505 31.8533H120.452C120.583 30.1125 121.888 28.0238 124.369 27.371V20.626C117.798 21.3222 112.054 26.8053 112.054 35.0733C112.054 44.3423 118.799 49.7818 126.414 49.7818C133.42 49.7818 137.772 45.7783 139.121 41.035L132.071 39.0333C131.288 41.209 129.591 42.645 126.545 42.645C123.281 42.645 120.452 40.4258 120.278 37.3363H139.469C139.469 37.3363 139.643 35.9 139.643 34.7253V34.6818Z" fill="white"></path>
    <path d="M22.9329 40.6443C18.1026 39.5998 14.1427 35.5965 14.1427 29.33C14.1427 21.1055 20.0608 17.3631 25.2828 17.3631C32.1583 17.3631 34.6823 21.9323 35.2481 24.6303L43.4726 22.0194C42.2106 16.4058 37.0321 8.83398 25.2828 8.83398C14.3602 8.87751 5.09131 17.1456 5.09131 29.33C5.09131 40.6008 12.8372 48.39 22.9329 49.478V40.6443Z" fill="white"></path>
    <path d="M35.683 33.5947C34.9433 36.2927 32.4195 40.5572 26.1965 40.9055V49.6522C37.772 49.304 42.7763 41.297 44.0383 35.988L35.7265 33.5947H35.683Z" fill="white"></path>
    <path d="M86.4229 7.78906C89.2079 7.78906 91.4709 10.0084 91.4709 12.7499C91.4709 15.4914 89.2514 17.7107 86.4229 17.7107C83.5944 17.7107 81.5056 15.4914 81.5056 12.7499C81.5056 10.0084 83.7249 7.78906 86.4229 7.78906ZM82.2454 49.0858V21.2791H90.7746V49.0858H82.2454Z" fill="white"></path>
    <path d="M98.2158 49.0867V8.57324H106.745V49.0867H98.2158Z" fill="white"></path>
    <path d="M139.643 34.7255C139.643 26.4575 135.074 21.3662 127.589 20.6699V27.415C130.374 28.0242 131.418 30.113 131.505 31.897H120.452C120.583 30.1565 121.888 28.0677 124.369 27.415V20.6699C117.798 21.3662 112.054 26.8492 112.054 35.1172C112.054 44.3862 118.799 49.8257 126.414 49.8257C133.42 49.8257 137.772 45.8222 139.121 41.079L132.071 39.0772C131.288 41.253 129.591 42.689 126.545 42.689C123.281 42.689 120.452 40.4697 120.278 37.38H139.469C139.469 37.38 139.643 35.944 139.643 34.7692V34.7255Z" fill="white"></path>
    <path d="M202.263 9.00781C192.472 9.00781 189.121 14.0992 183.42 21.4099C177.676 14.0557 174.325 9.00781 164.578 9.00781C154.09 9.00781 147.128 16.7537 147.128 28.3725C147.128 32.289 148.042 36.423 150 40.557V54.0035C150 55.0912 150.87 55.9617 151.958 55.9617C153.046 55.9617 153.916 55.0912 153.916 54.0035V46.9537C154.613 47.8677 155.396 48.7815 156.223 49.6955L164.23 58.5727V74.8912C164.23 75.979 165.1 76.8495 166.188 76.8495C167.276 76.8495 168.146 75.979 168.146 74.8912V62.9242L183.464 79.9825L190.339 72.3672V87.2497C190.339 88.3377 191.21 89.208 192.298 89.208C193.385 89.208 194.256 88.3377 194.256 87.2497V68.0157L204.395 56.745V70.8442C204.395 71.932 205.265 72.8025 206.353 72.8025C207.441 72.8025 208.311 71.932 208.311 70.8442V52.3932L210.705 49.739C217.015 42.8197 219.756 35.2045 219.756 28.3725C219.756 16.7537 212.837 9.00781 202.306 9.00781H202.263Z" fill="white"></path>
    <path d="M159.791 63.4899C159.791 61.7929 158.398 60.4004 156.701 60.4004C155.004 60.4004 153.612 61.7929 153.612 63.4899C153.612 65.1871 155.004 66.5796 156.701 66.5796C158.398 66.5796 159.791 65.1871 159.791 63.4899Z" fill="white"></path>
    <path d="M214.36 54.0039C213.272 54.0039 212.402 54.8742 212.402 55.9622C212.402 57.0499 213.272 57.9202 214.36 57.9202C215.448 57.9202 216.318 57.0499 216.318 55.9622C216.318 54.8742 215.448 54.0039 214.36 54.0039Z" fill="white"></path>
    <path d="M195.213 96.9101C195.213 95.2128 193.82 93.8203 192.123 93.8203C190.426 93.8203 189.034 95.2128 189.034 96.9101C189.034 98.6071 190.426 99.9996 192.123 99.9996C193.82 99.9996 195.213 98.6071 195.213 96.9101Z" fill="white"></path>
    <path d="M174.5 81.2014C174.5 80.1134 173.629 79.2432 172.542 79.2432C171.454 79.2432 170.583 80.1134 170.583 81.2014C170.583 82.2892 171.454 83.1594 172.542 83.1594C173.629 83.1594 174.5 82.2892 174.5 81.2014Z" fill="white"></path>
    <path d="M167.363 85.6401C167.363 84.9439 166.797 84.4219 166.145 84.4219C165.492 84.4219 164.926 84.9874 164.926 85.6401C164.926 86.2929 165.492 86.9021 166.145 86.9021C166.797 86.9021 167.363 86.3364 167.363 85.6401Z" fill="white"></path>
    <path d="M68.1462 58.1816C65.4917 58.1816 63.2725 60.4009 63.2725 63.0989C63.2725 65.7969 65.4917 68.0161 68.1462 68.0161C70.8007 68.0161 73.107 65.7969 73.107 63.0989C73.107 60.4009 70.8877 58.1816 68.1462 58.1816Z" fill="white"></path>
    <path d="M72.4107 71.4961H64.0122V98.9548H72.4107V71.4961Z" fill="white"></path>
    <path d="M105.396 71.4968V78.851H110.27V90.6003C110.27 96.0833 113.751 99.434 119.452 99.434C122.106 99.434 123.499 98.825 123.803 98.6508V91.6883C123.325 91.8188 122.498 91.9493 121.584 91.9493C119.756 91.9493 118.538 91.34 118.538 89.0773V78.8075H123.89V71.4533H118.538V63.4463H111.01V66.971C111.01 69.495 109.617 71.4533 106.745 71.4533H105.353L105.396 71.4968Z" fill="white"></path>
    <path d="M9.48631 99.7382C11.2705 99.7382 12.7935 99.39 14.0555 98.7375V93.2107C13.2287 93.5155 12.3584 93.646 11.5316 93.646C9.22524 93.646 8.26786 92.2535 8.26786 90.8175C8.26786 88.8592 9.57336 88.0325 11.3575 87.7712L17.2322 86.814V95.8217C17.2322 97.693 17.4498 98.6937 17.4933 98.9115H25.0652C25.0217 98.6502 24.717 96.8227 24.717 94.6467V81.244C24.717 75.5867 21.4533 70.626 12.576 70.626C4.52549 70.626 0.870137 75.8045 0.522009 79.7207L7.78919 81.2005C7.96326 79.1552 9.57336 77.1535 12.4889 77.1535C15.1434 77.1535 16.5359 78.546 16.5359 80.156C16.5359 81.1132 16.0573 81.8095 14.5342 82.0272L8.09381 83.028C3.56814 83.6807 -0.0437012 86.4657 -0.0437012 91.296C-0.0437012 95.6477 3.43759 99.6512 9.44281 99.6512L9.48631 99.7382Z" fill="white"></path>
    <path d="M49.2599 73.6298C48.6071 72.5856 46.5619 70.8013 41.8621 70.8013C34.0729 70.8013 28.5464 76.9371 28.5464 85.1181C28.5464 93.2991 34.4209 99.5218 42.1234 99.5218C43.6899 99.5218 45.0824 99.2173 46.3009 98.6951V91.2538C45.3871 91.7326 44.3426 91.9936 43.2984 91.9936C40.0346 91.9936 37.1189 89.6874 37.1189 85.1616C37.1189 80.6359 40.0346 78.3731 43.2984 78.3731C46.5619 78.3731 49.3906 80.5053 49.4776 84.9876V96.3018C49.4776 97.3896 49.6516 98.6081 49.6951 98.9563H57.7456C57.7021 98.3471 57.5281 96.5193 57.5281 94.0388V58.9648H49.2599V73.6733V73.6298Z" fill="white"></path>
    <path d="M139.426 78.5469V70.7139C131.984 71.4539 126.414 77.2849 126.414 85.2049C126.414 93.6904 132.768 99.7391 140.992 99.7391C149.217 99.7391 155.57 93.7341 155.57 85.2049C155.57 77.2414 149.957 71.4539 142.559 70.7139V78.5904C145.083 79.2431 147.171 81.4189 147.171 85.2484C147.171 89.9046 144.125 92.0369 140.992 92.0369C137.859 92.0369 134.813 89.9046 134.813 85.2484C134.813 81.3754 136.858 79.1996 139.426 78.5904V78.5469Z" fill="white"></path>
    <path d="M91.1228 70.6699C83.0723 70.6699 76.6755 76.6752 76.6755 85.2477C76.6755 92.9937 82.1585 98.6942 89.3385 99.6517V91.7317C86.8583 90.9484 85.0305 88.7289 85.0305 85.2477C85.0305 80.8092 87.859 78.4157 91.3403 78.4157C94.604 78.4157 96.2578 80.4174 96.867 82.5062L104.395 80.2434C103.177 75.3262 98.738 70.6699 91.2098 70.6699H91.1228Z" fill="white"></path>
    <path d="M92.4282 91.9488V99.7383C99.1732 99.3031 103.307 94.7773 104.482 90.2083L97.0845 87.9453C96.5622 89.7731 95.0392 91.5573 92.4282 91.9488Z" fill="white"></path>
    <path d="M227.807 33.3323C227.807 32.2443 226.936 31.374 225.848 31.374C224.761 31.374 223.89 32.2443 223.89 33.3323C223.89 34.4203 224.761 35.2905 225.848 35.2905C226.936 35.2905 227.807 34.4203 227.807 33.3323Z" fill="white"></path>
    <path d="M147.128 8.9209C146.432 8.9209 145.909 9.4866 145.909 10.1393C145.909 10.7921 146.475 11.4013 147.128 11.4013C147.781 11.4013 148.39 10.8356 148.39 10.1393C148.39 9.4431 147.824 8.9209 147.128 8.9209Z" fill="white"></path>
    <path d="M200.566 2.43652C199.869 2.43652 199.347 3.00223 199.347 3.65498C199.347 4.30773 199.913 4.91695 200.566 4.91695C201.218 4.91695 201.828 4.35123 201.828 3.65498C201.828 2.95873 201.262 2.43652 200.566 2.43652Z" fill="white"></path>
    <path d="M214.012 3.08965C214.012 1.39252 212.62 0 210.923 0C209.226 0 207.833 1.39252 207.833 3.08965C207.833 4.78677 209.226 6.17927 210.923 6.17927C212.62 6.17927 214.012 4.78677 214.012 3.08965Z" fill="white"></path>
    <path d="M57.4411 8.57324H48.9556V49.0867H57.4411V8.57324Z" fill="white"></path>
    <path d="M64.5345 20.5391C63.316 20.5391 61.967 20.7131 60.7485 21.1483V28.4155C61.1403 28.3285 61.5755 28.2415 62.0105 28.2415C65.1003 28.2415 66.5363 30.3303 66.5363 33.0718V49.0855H75.0655V31.6358C75.0655 25.5435 71.8018 20.5391 64.5345 20.5391Z" fill="white"></path>
  </g>
</svg>
