<svg xmlns="http://www.w3.org/2000/svg" width="94" height="40" viewBox="0 0 94 40" fill="none"><path d="M57.4083 13.8524C57.4083 10.55 55.5753 8.51638 52.572 8.23828V10.9324C53.6895 11.1757 54.1085 12.01 54.1435 12.7227H49.7085C49.7608 12.0274 50.285 11.1931 51.28 10.9324V8.23828C48.6437 8.51638 46.339 10.7064 46.339 14.0089C46.339 17.7111 49.045 19.8838 52.1006 19.8838C54.9118 19.8838 56.6578 18.2847 57.1988 16.3901L54.3703 15.5906C54.0561 16.4596 53.3753 17.0332 52.153 17.0332C50.8433 17.0332 49.7085 16.1468 49.6388 14.9127H57.3386C57.3386 14.9127 57.4083 14.3391 57.4083 13.8698V13.8524Z" fill="#1D1D1B"></path><path d="M10.5808 16.235C8.64276 15.8179 7.0539 14.2188 7.0539 11.7159C7.0539 8.4308 9.42846 6.93604 11.5237 6.93604C14.2824 6.93604 15.295 8.76107 15.522 9.83872L18.8219 8.79583C18.3156 6.55365 16.2379 3.5293 11.5237 3.5293C7.1412 3.5293 3.42224 6.83175 3.42224 11.6985C3.42224 16.2002 6.5301 19.3115 10.5808 19.7461V16.2176V16.235Z" fill="#1D1D1B"></path><path d="M15.6965 13.418C15.3997 14.4956 14.387 16.199 11.8903 16.338V19.8317C16.5346 19.6926 18.5425 16.4944 19.0489 14.3739L15.714 13.418H15.6965Z" fill="#1D1D1B"></path><path d="M36.0549 3.11133C37.1723 3.11133 38.0802 3.99777 38.0802 5.0928C38.0802 6.18782 37.1898 7.07425 36.0549 7.07425C34.92 7.07425 34.0819 6.18782 34.0819 5.0928C34.0819 3.99777 34.9723 3.11133 36.0549 3.11133ZM34.3787 19.6062V8.49953H37.8009V19.6062H34.3787Z" fill="#1D1D1B"></path><path d="M40.769 19.6058V3.42383H44.1913V19.6058H40.769Z" fill="#1D1D1B"></path><path d="M57.4083 13.87C57.4083 10.5676 55.5753 8.53396 52.572 8.25586V10.95C53.6895 11.1933 54.1085 12.0276 54.1435 12.7402H49.7085C49.7608 12.045 50.285 11.2107 51.28 10.95V8.25586C48.6437 8.53396 46.339 10.724 46.339 14.0265C46.339 17.7286 49.045 19.9013 52.1006 19.9013C54.9118 19.9013 56.6578 18.3023 57.1988 16.4077L54.3703 15.6081C54.0561 16.4772 53.3753 17.0508 52.153 17.0508C50.8433 17.0508 49.7085 16.1644 49.6388 14.9303H57.3386C57.3386 14.9303 57.4083 14.3567 57.4083 13.8874V13.87Z" fill="#1D1D1B"></path><path d="M82.5333 3.59766C78.605 3.59766 77.2607 5.63126 74.9733 8.55131C72.6685 5.6139 71.3242 3.59766 67.4133 3.59766C63.2054 3.59766 60.4116 6.69151 60.4116 11.3323C60.4116 12.8967 60.7782 14.5479 61.5642 16.1991V21.5699C61.5642 22.0045 61.9131 22.3521 62.3498 22.3521C62.7861 22.3521 63.1353 22.0045 63.1353 21.5699V18.7542C63.4149 19.1191 63.7291 19.4842 64.0607 19.8492L67.2735 23.3949V29.9129C67.2735 30.3475 67.6228 30.6951 68.059 30.6951C68.4957 30.6951 68.8446 30.3475 68.8446 29.9129V25.1331L74.9906 31.9465L77.7494 28.9048V34.8492C77.7494 35.2838 78.0986 35.6314 78.5349 35.6314C78.9716 35.6314 79.3209 35.2838 79.3209 34.8492V27.1667L83.3889 22.6649V28.2965C83.3889 28.731 83.7382 29.0786 84.1745 29.0786C84.6112 29.0786 84.9605 28.731 84.9605 28.2965V20.9268L85.9205 19.8666C88.4524 17.1029 89.5522 14.0612 89.5522 11.3323C89.5522 6.69151 86.7762 3.59766 82.551 3.59766H82.5333Z" fill="#EA0029"></path><path d="M65.4924 25.3591C65.4924 24.6812 64.9336 24.125 64.2528 24.125C63.5719 24.125 63.0132 24.6812 63.0132 25.3591C63.0132 26.037 63.5719 26.5932 64.2528 26.5932C64.9336 26.5932 65.4924 26.037 65.4924 25.3591Z" fill="#EA0029"></path><path d="M87.3873 21.5703C86.9506 21.5703 86.6017 21.9179 86.6017 22.3525C86.6017 22.787 86.9506 23.1346 87.3873 23.1346C87.824 23.1346 88.1728 22.787 88.1728 22.3525C88.1728 21.9179 87.824 21.5703 87.3873 21.5703Z" fill="#EA0029"></path><path d="M79.7048 38.7087C79.7048 38.0308 79.146 37.4746 78.4652 37.4746C77.7843 37.4746 77.2256 38.0308 77.2256 38.7087C77.2256 39.3866 77.7843 39.9427 78.4652 39.9427C79.146 39.9427 79.7048 39.3866 79.7048 38.7087Z" fill="#EA0029"></path><path d="M71.3939 32.4345C71.3939 32 71.0446 31.6523 70.6083 31.6523C70.1716 31.6523 69.8228 32 69.8228 32.4345C69.8228 32.869 70.1716 33.2167 70.6083 33.2167C71.0446 33.2167 71.3939 32.869 71.3939 32.4345Z" fill="#EA0029"></path><path d="M68.5302 34.2054C68.5302 33.9273 68.3034 33.7188 68.0416 33.7188C67.7797 33.7188 67.5525 33.9447 67.5525 34.2054C67.5525 34.4661 67.7797 34.7095 68.0416 34.7095C68.3034 34.7095 68.5302 34.4835 68.5302 34.2054Z" fill="#EA0029"></path><path d="M28.7216 23.2402C27.6565 23.2402 26.7661 24.1267 26.7661 25.2043C26.7661 26.282 27.6565 27.1684 28.7216 27.1684C29.7867 27.1684 30.7121 26.282 30.7121 25.2043C30.7121 24.1267 29.8216 23.2402 28.7216 23.2402Z" fill="#1D1D1B"></path><path d="M30.4328 28.5566H27.063V39.5242H30.4328V28.5566Z" fill="#1D1D1B"></path><path d="M43.6676 28.5573V31.4948H45.6231V36.1877C45.6231 38.3778 47.0198 39.7161 49.3072 39.7161C50.372 39.7161 50.9307 39.4728 51.0532 39.4033V36.6222C50.861 36.6744 50.5291 36.7265 50.1625 36.7265C49.4293 36.7265 48.9402 36.4832 48.9402 35.5794V31.4774H51.0878V28.5399H48.9402V25.3418H45.9196V26.7497C45.9196 27.7578 45.3612 28.5399 44.2087 28.5399H43.6499L43.6676 28.5573Z" fill="#1D1D1B"></path><path d="M5.18569 39.839C5.90152 39.839 6.51262 39.7 7.01897 39.4392V37.2318C6.68721 37.3535 6.33802 37.4056 6.00631 37.4056C5.0809 37.4056 4.69678 36.8495 4.69678 36.2758C4.69678 35.4937 5.22061 35.1634 5.93645 35.0591L8.29356 34.6768V38.2747C8.29356 39.0221 8.38086 39.4219 8.39831 39.5087H11.4364C11.4189 39.4045 11.2967 38.6745 11.2967 37.8054V32.452C11.2967 30.1924 9.98717 28.2109 6.42532 28.2109C3.19524 28.2109 1.7286 30.2793 1.58892 31.8436L4.50474 32.4346C4.57459 31.6177 5.22061 30.8181 6.39043 30.8181C7.45546 30.8181 8.01418 31.3743 8.01418 32.0175C8.01418 32.3998 7.82214 32.6779 7.21105 32.7648L4.62697 33.1646C2.81112 33.4253 1.36194 34.5377 1.36194 36.4671C1.36194 38.2052 2.75874 39.8043 5.1682 39.8043L5.18569 39.839Z" fill="#1D1D1B"></path><path d="M21.1441 29.4083C20.8822 28.9911 20.0616 28.2785 18.1759 28.2785C15.0506 28.2785 12.8331 30.7293 12.8331 33.9969C12.8331 37.2646 15.1902 39.7502 18.2807 39.7502C18.9092 39.7502 19.4679 39.6285 19.9568 39.4199V36.4477C19.5902 36.6389 19.1711 36.7432 18.7521 36.7432C17.4426 36.7432 16.2728 35.822 16.2728 34.0143C16.2728 32.2067 17.4426 31.3028 18.7521 31.3028C20.0616 31.3028 21.1965 32.1545 21.2314 33.9448V38.4639C21.2314 38.8985 21.3013 39.3851 21.3187 39.5242H24.5488C24.5313 39.2808 24.4615 38.5508 24.4615 37.5601V23.5508H21.1441V29.4257V29.4083Z" fill="#1D1D1B"></path><path d="M57.3212 31.3728V28.2441C54.3356 28.5396 52.1006 30.8687 52.1006 34.0321C52.1006 37.4215 54.6499 39.8375 57.9497 39.8375C61.2495 39.8375 63.7987 37.4388 63.7987 34.0321C63.7987 30.8513 61.5464 28.5396 58.5781 28.2441V31.3901C59.5909 31.6509 60.4288 32.5199 60.4288 34.0495C60.4288 35.9093 59.207 36.761 57.9497 36.761C56.6928 36.761 55.4705 35.9093 55.4705 34.0495C55.4705 32.5025 56.2911 31.6335 57.3212 31.3901V31.3728Z" fill="#1D1D1B"></path><path d="M37.9405 28.2266C34.7104 28.2266 32.1438 30.6252 32.1438 34.0493C32.1438 37.1431 34.3437 39.4201 37.2246 39.8025V36.6391C36.2294 36.3262 35.4961 35.4398 35.4961 34.0493C35.4961 32.2764 36.631 31.3204 38.0278 31.3204C39.3373 31.3204 40.0008 32.12 40.2452 32.9543L43.2659 32.0504C42.7768 30.0864 40.996 28.2266 37.9754 28.2266H37.9405Z" fill="#1D1D1B"></path><path d="M38.4644 36.728V39.8392C41.1707 39.6654 42.8293 37.8578 43.3006 36.0327L40.3326 35.1289C40.1231 35.8589 39.512 36.5715 38.4644 36.728Z" fill="#1D1D1B"></path><path d="M92.7823 13.3134C92.7823 12.8789 92.433 12.5312 91.9967 12.5312C91.56 12.5312 91.2112 12.8789 91.2112 13.3134C91.2112 13.748 91.56 14.0956 91.9967 14.0956C92.433 14.0956 92.7823 13.748 92.7823 13.3134Z" fill="#EA0029"></path><path d="M60.3942 3.5625C60.1146 3.5625 59.9052 3.78846 59.9052 4.04918C59.9052 4.30991 60.1324 4.55325 60.3942 4.55325C60.6561 4.55325 60.9006 4.32728 60.9006 4.04918C60.9006 3.77108 60.6734 3.5625 60.3942 3.5625Z" fill="#EA0029"></path><path d="M81.8524 0.972656C81.5733 0.972656 81.3638 1.19862 81.3638 1.45933C81.3638 1.72005 81.5906 1.96339 81.8524 1.96339C82.1143 1.96339 82.3588 1.73744 82.3588 1.45933C82.3588 1.18123 82.132 0.972656 81.8524 0.972656Z" fill="#EA0029"></path><path d="M87.2475 1.23407C87.2475 0.556202 86.6887 0 86.0079 0C85.3271 0 84.7683 0.556202 84.7683 1.23407C84.7683 1.91194 85.3271 2.46814 86.0079 2.46814C86.6887 2.46814 87.2475 1.91194 87.2475 1.23407Z" fill="#EA0029"></path><path d="M24.4091 3.42383H21.0044V19.6058H24.4091V3.42383Z" fill="#1D1D1B"></path><path d="M27.2726 8.20312C26.7837 8.20312 26.2424 8.27265 25.7535 8.44646V11.3491C25.9107 11.3144 26.0853 11.2796 26.2598 11.2796C27.4995 11.2796 28.0757 12.1139 28.0757 13.2089V19.6053H31.4979V12.6354C31.4979 10.202 30.1883 8.20312 27.2726 8.20312Z" fill="#1D1D1B"></path><mask id="mask0_2780_3099" style="mask-type:luminance" maskUnits="userSpaceOnUse" x="64" y="12" width="22" height="5"><path d="M85.3609 12.7832H64.7423V16.0822H85.3609V12.7832Z" fill="white"></path></mask><g mask="url(#mask0_2780_3099)"><path d="M64.7423 16.0501V12.8301H65.4219V14.2034H66.8301V12.8301H67.5097V16.0501H66.8301V14.7874H65.4219V16.0501H64.7423Z" fill="white"></path><path d="M68.2219 15.0879C68.125 14.8827 68.0924 14.6617 68.0924 14.425C68.0924 14.1882 68.1411 13.9672 68.2219 13.762C68.3027 13.5568 68.4322 13.3832 68.5778 13.2411C68.7237 13.099 68.918 12.9886 69.1283 12.8938C69.3386 12.8149 69.565 12.7676 69.7918 12.7676C70.0182 12.7676 70.245 12.8149 70.4553 12.8938C70.6656 12.9728 70.8438 13.099 71.0054 13.2411C71.1514 13.3832 71.2809 13.5568 71.3617 13.762C71.4586 13.9672 71.4912 14.1882 71.4912 14.425C71.4912 14.6617 71.4425 14.8827 71.3617 15.0879C71.2809 15.2931 71.1514 15.4668 71.0054 15.6088C70.8598 15.7509 70.6656 15.8614 70.4553 15.9561C70.245 16.0508 70.0182 16.0823 69.7918 16.0823C69.565 16.0823 69.3386 16.035 69.1283 15.9561C68.918 15.8771 68.7398 15.7666 68.5778 15.6088C68.4161 15.451 68.3027 15.2931 68.2219 15.0879ZM69.0796 13.6831C68.8854 13.8883 68.8046 14.1409 68.8046 14.4407C68.8046 14.7406 68.9015 14.9932 69.0796 15.1984C69.2739 15.4036 69.5167 15.4983 69.8079 15.4983C70.0994 15.4983 70.3419 15.4036 70.5361 15.1984C70.7303 14.9932 70.8112 14.7406 70.8112 14.4407C70.8112 14.1409 70.7143 13.8883 70.5361 13.6831C70.3584 13.4779 70.0994 13.3832 69.8079 13.3832C69.5167 13.3832 69.2739 13.4779 69.0796 13.6831Z" fill="white"></path><path d="M71.7014 13.3983V12.8301H74.2585V13.4141H73.32V16.0501H72.64V13.3983H71.7014Z" fill="white"></path><path d="M74.7604 16.0501V12.8301H76.9451V13.4141H75.44V14.156H76.767V14.7242H75.44V15.4661H77.0099V16.0501H74.7604Z" fill="white"></path><path d="M77.6409 16.0501V12.8301H78.3209V15.4661H79.8095V16.0501H77.6409Z" fill="white"></path><path d="M80.3762 16.0501V12.8301H82.561V13.4141H81.0558V14.156H82.3832V14.7242H81.0558V15.4661H82.6257V16.0501H80.3762Z" fill="white"></path><path d="M82.998 15.4192L83.5481 15.1035C83.6294 15.2298 83.7263 15.3245 83.8236 15.4035C83.9205 15.4666 84.0661 15.5139 84.2121 15.5139C84.3576 15.5139 84.4545 15.4824 84.5519 15.4192C84.6327 15.3561 84.6813 15.2771 84.6813 15.1825C84.6813 15.1509 84.6813 15.1193 84.6813 15.0877C84.6813 15.0562 84.6488 15.0246 84.6327 15.0088C84.6166 14.9773 84.584 14.9615 84.5679 14.9457C84.5519 14.9299 84.5193 14.9141 84.4706 14.8825C84.4224 14.8667 84.3898 14.8352 84.3576 14.8194C84.3251 14.8194 84.2764 14.7878 84.2121 14.7563L84.05 14.6931C83.9205 14.6458 83.8071 14.5826 83.7102 14.5195C83.6129 14.4564 83.5321 14.3932 83.4512 14.3143C83.3704 14.2354 83.3218 14.1407 83.2892 14.046C83.257 13.9355 83.2409 13.825 83.2409 13.6987C83.2409 13.4462 83.3378 13.2409 83.516 13.0673C83.6941 12.8937 83.8884 12.7832 84.1956 12.7832C84.4224 12.7832 84.6001 12.8305 84.7622 12.9095C84.9238 12.9884 85.0533 13.1305 85.1667 13.3199L84.6327 13.6514C84.5679 13.5566 84.5032 13.4777 84.4385 13.4304C84.3737 13.383 84.2929 13.3672 84.1956 13.3672C84.0987 13.3672 84.0178 13.3988 83.9531 13.4462C83.8884 13.4935 83.8558 13.5724 83.8558 13.6514C83.8558 13.746 83.8884 13.825 83.9531 13.8723C84.0178 13.9197 84.1147 13.9828 84.2764 14.046L84.4545 14.1091C84.6166 14.1722 84.7461 14.2354 84.843 14.2985C84.9403 14.3617 85.0372 14.4248 85.118 14.5037C85.1993 14.5826 85.264 14.6773 85.2962 14.7878C85.3288 14.8983 85.3609 15.0088 85.3609 15.1509C85.3609 15.435 85.264 15.6718 85.0533 15.8296C84.843 15.9875 84.5679 16.0664 84.2442 16.0664C83.9366 16.0664 83.6941 16.0032 83.4834 15.877C83.2731 15.7507 83.1114 15.5929 83.0141 15.3877L82.998 15.4192Z" fill="white"></path></g></svg>