<svg xmlns="http://www.w3.org/2000/svg" width="230" height="101" viewBox="0 0 230 101" fill="none"><path d="M142.309 34.2714C142.309 26.1012 137.765 21.0701 130.32 20.3821V27.0473C133.09 27.6493 134.129 29.7134 134.216 31.4764H123.222C123.352 29.7563 124.651 27.6923 127.117 27.0473V20.3821C120.582 21.0701 114.869 26.4883 114.869 34.6585C114.869 43.8178 121.577 49.1929 129.152 49.1929C136.12 49.1929 140.448 45.2368 141.789 40.5496L134.778 38.5716C133.999 40.7216 132.311 42.1406 129.281 42.1406C126.035 42.1406 123.222 39.9476 123.049 36.8946H142.136C142.136 36.8946 142.309 35.4755 142.309 34.3145V34.2714Z" fill="white"></path><path d="M26.2287 40.1633C21.4245 39.1313 17.4859 35.1752 17.4859 28.983C17.4859 20.8558 23.3721 17.1577 28.5659 17.1577C35.4044 17.1577 37.9147 21.6729 38.4774 24.339L46.6575 21.7589C45.4024 16.2117 40.2519 8.72949 28.5659 8.72949C17.7023 8.72949 8.4834 16.8997 8.4834 28.9401C8.4834 40.0773 16.1874 47.7745 26.2287 48.8495V40.1204V40.1633Z" fill="white"></path><path d="M38.9099 33.1974C38.1741 35.8635 35.6639 40.0776 29.4746 40.4216V49.0649C40.9874 48.7209 45.9648 40.8086 47.22 35.5625L38.9532 33.1974H38.9099Z" fill="white"></path><path d="M89.3761 7.69739C92.1461 7.69739 94.3967 9.89044 94.3967 12.5995C94.3967 15.3086 92.1894 17.5016 89.3761 17.5016C86.5628 17.5016 84.4854 15.3086 84.4854 12.5995C84.4854 9.89044 86.6926 7.69739 89.3761 7.69739ZM85.221 48.5054V21.0277H93.7043V48.5054H85.221Z" fill="white"></path><path d="M101.062 48.5055V8.47144H109.545V48.5055H101.062Z" fill="white"></path><path d="M142.309 34.3154C142.309 26.1452 137.765 21.114 130.32 20.426V27.0912C133.09 27.6932 134.129 29.7573 134.216 31.5203H123.222C123.352 29.8003 124.651 27.7362 127.117 27.0912V20.426C120.582 21.114 114.869 26.5321 114.869 34.7024C114.869 43.8616 121.577 49.2367 129.152 49.2367C136.12 49.2367 140.448 45.2807 141.789 40.5936L134.778 38.6155C133.999 40.7656 132.311 42.1846 129.281 42.1846C126.035 42.1846 123.222 39.9916 123.049 36.9384H142.136C142.136 36.9384 142.309 35.5194 142.309 34.3584V34.3154Z" fill="white"></path><path d="M204.081 8.90088C194.344 8.90088 191.011 13.932 185.341 21.1563C179.628 13.889 176.295 8.90088 166.6 8.90088C156.169 8.90088 149.244 16.555 149.244 28.0364C149.244 31.9065 150.153 35.9916 152.1 40.0767V53.364C152.1 54.4391 152.966 55.2991 154.049 55.2991C155.13 55.2991 155.996 54.4391 155.996 53.364V46.3979C156.689 47.3009 157.468 48.2039 158.29 49.1069L166.254 57.8791V74.0047C166.254 75.0796 167.12 75.9397 168.201 75.9397C169.284 75.9397 170.149 75.0796 170.149 74.0047V62.1793L185.384 79.0358L192.222 71.5106V86.217C192.222 87.292 193.088 88.152 194.17 88.152C195.252 88.152 196.118 87.292 196.118 86.217V67.2104L206.202 56.0732V70.0055C206.202 71.0806 207.068 71.9406 208.15 71.9406C209.232 71.9406 210.098 71.0806 210.098 70.0055V51.773L212.478 49.15C218.754 42.3128 221.481 34.7876 221.481 28.0364C221.481 16.555 214.599 8.90088 204.125 8.90088H204.081Z" fill="white"></path><path d="M162.349 62.7388C162.349 61.0618 160.964 59.6858 159.276 59.6858C157.588 59.6858 156.203 61.0618 156.203 62.7388C156.203 64.416 157.588 65.792 159.276 65.792C160.964 65.792 162.349 64.416 162.349 62.7388Z" fill="white"></path><path d="M216.623 53.3643C215.541 53.3643 214.676 54.2243 214.676 55.2993C214.676 56.3744 215.541 57.2344 216.623 57.2344C217.706 57.2344 218.57 56.3744 218.57 55.2993C218.57 54.2243 217.706 53.3643 216.623 53.3643Z" fill="white"></path><path d="M197.579 95.7639C197.579 94.0869 196.194 92.7108 194.506 92.7108C192.819 92.7108 191.434 94.0869 191.434 95.7639C191.434 97.441 192.819 98.8169 194.506 98.8169C196.194 98.8169 197.579 97.441 197.579 95.7639Z" fill="white"></path><path d="M176.978 80.2406C176.978 79.1656 176.112 78.3055 175.03 78.3055C173.948 78.3055 173.083 79.1656 173.083 80.2406C173.083 81.3157 173.948 82.1757 175.03 82.1757C176.112 82.1757 176.978 81.3157 176.978 80.2406Z" fill="white"></path><path d="M169.879 84.6265C169.879 83.9385 169.317 83.4225 168.667 83.4225C168.018 83.4225 167.455 83.9816 167.455 84.6265C167.455 85.2715 168.018 85.8735 168.667 85.8735C169.317 85.8735 169.879 85.3146 169.879 84.6265Z" fill="white"></path><path d="M71.1981 57.4929C68.5579 57.4929 66.3506 59.6859 66.3506 62.352C66.3506 65.0181 68.5579 67.2112 71.1981 67.2112C73.8383 67.2112 76.1321 65.0181 76.1321 62.352C76.1321 59.6859 73.9247 57.4929 71.1981 57.4929Z" fill="white"></path><path d="M75.4392 70.651H67.0859V97.7847H75.4392V70.651Z" fill="white"></path><path d="M108.247 70.6508V77.918H113.094V89.5283C113.094 94.9464 116.557 98.2576 122.227 98.2576C124.866 98.2576 126.251 97.6555 126.555 97.4835V90.6033C126.079 90.7323 125.256 90.8613 124.347 90.8613C122.53 90.8613 121.317 90.2593 121.317 88.0232V77.8749H126.641V70.6077H121.317V62.6956H113.829V66.1786C113.829 68.6727 112.445 70.6077 109.588 70.6077H108.203L108.247 70.6508Z" fill="white"></path><path d="M12.8546 98.559C14.6291 98.559 16.1439 98.215 17.3991 97.5699V92.1088C16.5767 92.4098 15.7111 92.5388 14.8888 92.5388C12.5949 92.5388 11.6427 91.1629 11.6427 89.7438C11.6427 87.8087 12.9412 86.9917 14.7157 86.7336L20.5587 85.7876V94.6889C20.5587 96.538 20.7751 97.527 20.8184 97.7419H28.3494C28.306 97.4839 28.003 95.678 28.003 93.5279V80.2835C28.003 74.6933 24.757 69.7913 15.9275 69.7913C7.92052 69.7913 4.28489 74.9084 3.93864 78.7785L11.1666 80.2405C11.3398 78.2194 12.9412 76.2414 15.841 76.2414C18.4811 76.2414 19.8661 77.6174 19.8661 79.2085C19.8661 80.1545 19.3901 80.8425 17.8753 81.0576L11.4696 82.0465C6.96833 82.6916 3.37598 85.4436 3.37598 90.2168C3.37598 94.5169 6.83849 98.473 12.8113 98.473L12.8546 98.559Z" fill="white"></path><path d="M52.4135 72.7575C51.7643 71.7254 49.7301 69.9624 45.0556 69.9624C37.3083 69.9624 31.8115 76.0256 31.8115 84.1098C31.8115 92.1941 37.6545 98.3432 45.3154 98.3432C46.8735 98.3432 48.2585 98.0422 49.4703 97.5261V90.1729C48.5615 90.646 47.5227 90.904 46.484 90.904C43.2378 90.904 40.338 88.6249 40.338 84.1528C40.338 79.6807 43.2378 77.4446 46.484 77.4446C49.7301 77.4446 52.5433 79.5517 52.6299 83.9808V95.1611C52.6299 96.2361 52.8031 97.4401 52.8463 97.7841H60.8534C60.81 97.1821 60.637 95.3761 60.637 92.925V58.2661H52.4135V72.8005V72.7575Z" fill="white"></path><path d="M142.093 77.6171V69.877C134.692 70.6079 129.151 76.3701 129.151 84.1963C129.151 92.5815 135.471 98.5587 143.651 98.5587C151.83 98.5587 158.15 92.6245 158.15 84.1963C158.15 76.3271 152.566 70.6079 145.208 69.877V77.6601C147.719 78.3051 149.796 80.4552 149.796 84.2393C149.796 88.8405 146.767 90.9475 143.651 90.9475C140.535 90.9475 137.505 88.8405 137.505 84.2393C137.505 80.4122 139.539 78.2621 142.093 77.6601V77.6171Z" fill="white"></path><path d="M94.05 69.8341C86.043 69.8341 79.6807 75.7682 79.6807 84.2395C79.6807 91.8936 85.134 97.5268 92.2755 98.4728V90.6466C89.8084 89.8726 87.9906 87.6796 87.9906 84.2395C87.9906 79.8533 90.804 77.4883 94.2664 77.4883C97.5125 77.4883 99.1573 79.4663 99.7631 81.5304L107.251 79.2943C106.039 74.4352 101.624 69.8341 94.1366 69.8341H94.05Z" fill="white"></path><path d="M95.3486 90.8616V98.5588C102.057 98.1288 106.169 93.6567 107.337 89.1416L99.9797 86.9055C99.4604 88.7116 97.9456 90.4746 95.3486 90.8616Z" fill="white"></path><path d="M229.997 32.9387C229.997 31.8636 229.131 31.0035 228.05 31.0035C226.967 31.0035 226.103 31.8636 226.103 32.9387C226.103 34.0136 226.967 34.8737 228.05 34.8737C229.131 34.8737 229.997 34.0136 229.997 32.9387Z" fill="white"></path><path d="M149.71 8.81519C149.017 8.81519 148.498 9.37421 148.498 10.0192C148.498 10.6643 149.061 11.2663 149.71 11.2663C150.36 11.2663 150.966 10.7072 150.966 10.0192C150.966 9.3312 150.402 8.81519 149.71 8.81519Z" fill="white"></path><path d="M202.903 2.40808C202.211 2.40808 201.691 2.9671 201.691 3.61211C201.691 4.25714 202.254 4.85915 202.903 4.85915C203.552 4.85915 204.158 4.30014 204.158 3.61211C204.158 2.9241 203.596 2.40808 202.903 2.40808Z" fill="white"></path><path d="M216.276 3.05308C216.276 1.37604 214.891 0 213.204 0C211.516 0 210.131 1.37604 210.131 3.05308C210.131 4.73013 211.516 6.10616 213.204 6.10616C214.891 6.10616 216.276 4.73013 216.276 3.05308Z" fill="white"></path><path d="M60.5073 8.47144H52.0674V48.5055H60.5073V8.47144Z" fill="white"></path><path d="M67.6053 20.2964C66.3935 20.2964 65.0517 20.4684 63.8398 20.8984V28.0796C64.2293 27.9936 64.6621 27.9076 65.0949 27.9076C68.1679 27.9076 69.5963 29.9717 69.5963 32.6807V48.5052H78.0794V31.2617C78.0794 25.2415 74.8332 20.2964 67.6053 20.2964Z" fill="white"></path><path d="M164.578 39.6826V31.7316H165.851V35.2744H169.778V31.7316H171.051V39.6826H169.778V36.3736H165.851V39.6826H164.578Z" fill="black"></path><path d="M176.865 39.7878C174.523 39.7878 172.649 38.0806 172.649 35.707C172.649 33.3334 174.523 31.6262 176.865 31.6262C179.195 31.6262 181.068 33.3334 181.068 35.707C181.068 38.0806 179.195 39.7878 176.865 39.7878ZM176.865 38.677C178.57 38.677 179.771 37.4025 179.771 35.707C179.771 34.0116 178.57 32.737 176.865 32.737C175.16 32.737 173.947 34.0116 173.947 35.707C173.947 37.4025 175.16 38.677 176.865 38.677Z" fill="black"></path><path d="M184.007 39.6826V32.819H181.581V31.7316H187.694V32.819H185.268V39.6826H184.007Z" fill="black"></path><path d="M189.066 39.6826V31.7316H194.254V32.819H190.339V35.1575H193.811V36.2216H190.339V38.5952H194.423V39.6826H189.066Z" fill="black"></path><path d="M196.114 39.6826V31.7316H197.388V38.5952H201.159V39.6826H196.114Z" fill="black"></path><path d="M204.857 39.7878C203.307 39.7878 202.371 39.0395 201.914 38.1392L202.959 37.5779C203.343 38.1976 203.836 38.6887 204.833 38.6887C205.662 38.6887 206.249 38.2561 206.249 37.6012C206.249 36.9114 205.769 36.6073 204.881 36.2215L204.34 35.9877C203.151 35.4732 202.43 34.8885 202.43 33.6608C202.43 32.4798 203.368 31.6379 204.724 31.6379C205.806 31.6379 206.538 32.0354 207.03 32.889L206.034 33.4853C205.721 32.9592 205.361 32.7136 204.724 32.7136C204.076 32.7136 203.667 33.0995 203.667 33.6373C203.667 34.2337 204.016 34.5027 204.845 34.8534L205.373 35.0872C206.767 35.6837 207.511 36.3151 207.511 37.5896C207.511 38.981 206.393 39.7878 204.857 39.7878Z" fill="black"></path><path d="M164.578 39.6826V31.7316H165.851V35.2744H169.778V31.7316H171.051V39.6826H169.778V36.3736H165.851V39.6826H164.578Z" stroke="black" stroke-width="0.3"></path><path d="M176.865 39.7878C174.523 39.7878 172.649 38.0806 172.649 35.707C172.649 33.3334 174.523 31.6262 176.865 31.6262C179.195 31.6262 181.068 33.3334 181.068 35.707C181.068 38.0806 179.195 39.7878 176.865 39.7878ZM176.865 38.677C178.57 38.677 179.771 37.4025 179.771 35.707C179.771 34.0116 178.57 32.737 176.865 32.737C175.16 32.737 173.947 34.0116 173.947 35.707C173.947 37.4025 175.16 38.677 176.865 38.677Z" stroke="black" stroke-width="0.3"></path><path d="M184.007 39.6826V32.819H181.581V31.7316H187.694V32.819H185.268V39.6826H184.007Z" stroke="black" stroke-width="0.3"></path><path d="M189.066 39.6826V31.7316H194.254V32.819H190.339V35.1575H193.811V36.2216H190.339V38.5952H194.423V39.6826H189.066Z" stroke="black" stroke-width="0.3"></path><path d="M196.114 39.6826V31.7316H197.388V38.5952H201.159V39.6826H196.114Z" stroke="black" stroke-width="0.3"></path><path d="M204.857 39.7878C203.307 39.7878 202.371 39.0395 201.914 38.1392L202.959 37.5779C203.343 38.1976 203.836 38.6887 204.833 38.6887C205.662 38.6887 206.249 38.2561 206.249 37.6012C206.249 36.9114 205.769 36.6073 204.881 36.2215L204.34 35.9877C203.151 35.4732 202.43 34.8885 202.43 33.6608C202.43 32.4798 203.368 31.6379 204.724 31.6379C205.806 31.6379 206.538 32.0354 207.03 32.889L206.034 33.4853C205.721 32.9592 205.361 32.7136 204.724 32.7136C204.076 32.7136 203.667 33.0995 203.667 33.6373C203.667 34.2337 204.016 34.5027 204.845 34.8534L205.373 35.0872C206.767 35.6837 207.511 36.3151 207.511 37.5896C207.511 38.981 206.393 39.7878 204.857 39.7878Z" stroke="black" stroke-width="0.3"></path></svg>