<?xml version="1.0" encoding="UTF-8"?>
<svg xmlns="http://www.w3.org/2000/svg" width="230" height="100" viewBox="0 0 230 100" fill="none">
  <path d="M142.309 33.9324C142.309 25.8431 137.765 20.8619 130.32 20.1807V26.7799C133.09 27.3759 134.129 29.4196 134.216 31.1651H123.222C123.352 29.4621 124.651 27.4185 127.117 26.7799V20.1807C120.582 20.8619 114.869 26.2264 114.869 34.3157C114.869 43.3843 121.577 48.7062 129.152 48.7062C136.12 48.7062 140.448 44.7893 141.789 40.1485L134.778 38.1901C133.999 40.3188 132.311 41.7237 129.281 41.7237C126.035 41.7237 123.222 39.5524 123.049 36.5297H142.136C142.136 36.5297 142.309 35.1246 142.309 33.9751V33.9324Z" fill="#EA0029"></path>
  <path d="M26.2287 39.7652C21.4245 38.7434 17.4859 34.8264 17.4859 28.6956C17.4859 20.6488 23.3721 16.9873 28.5659 16.9873C35.4044 16.9873 37.9147 21.4578 38.4774 24.0975L46.6575 21.543C45.4024 16.0507 40.2519 8.64258 28.5659 8.64258C17.7023 8.64258 8.4834 16.7319 8.4834 28.6531C8.4834 39.68 16.1874 47.301 26.2287 48.3654V39.7227V39.7652Z" fill="black"></path>
  <path d="M38.9099 32.8691C38.1741 35.5088 35.6639 39.6812 29.4746 40.0218V48.5795C40.9874 48.2389 45.9648 40.405 47.22 35.2108L38.9532 32.8691H38.9099Z" fill="black"></path>
  <path d="M89.3761 7.62109C92.1461 7.62109 94.3967 9.79243 94.3967 12.4747C94.3967 15.1569 92.1894 17.3282 89.3761 17.3282C86.5628 17.3282 84.4854 15.1569 84.4854 12.4747C84.4854 9.79243 86.6926 7.62109 89.3761 7.62109ZM85.221 48.0251V20.8194H93.7043V48.0251H85.221Z" fill="black"></path>
  <path d="M101.062 48.0254V8.3877H109.545V48.0254H101.062Z" fill="black"></path>
  <path d="M142.309 33.9755C142.309 25.8862 137.765 20.9048 130.32 20.2236V26.8228C133.09 27.4189 134.129 29.4625 134.216 31.2081H123.222C123.352 29.5051 124.651 27.4615 127.117 26.8228V20.2236C120.582 20.9048 114.869 26.2693 114.869 34.3587C114.869 43.4272 121.577 48.7491 129.152 48.7491C136.12 48.7491 140.448 44.8322 141.789 40.1916L134.778 38.233C133.999 40.3619 132.311 41.7668 129.281 41.7668C126.035 41.7668 123.222 39.5955 123.049 36.5725H142.136C142.136 36.5725 142.309 35.1676 142.309 34.0181V33.9755Z" fill="black"></path>
  <path d="M204.081 8.8125C194.344 8.8125 191.011 13.7938 185.341 20.9466C179.628 13.7512 176.295 8.8125 166.6 8.8125C156.169 8.8125 149.244 16.3908 149.244 27.7586C149.244 31.5903 150.153 35.635 152.1 39.6796V52.8354C152.1 53.8998 152.966 54.7513 154.049 54.7513C155.13 54.7513 155.996 53.8998 155.996 52.8354V45.9383C156.689 46.8323 157.468 47.7264 158.29 48.6204L166.254 57.3058V73.2717C166.254 74.336 167.12 75.1876 168.201 75.1876C169.284 75.1876 170.149 74.336 170.149 73.2717V61.5634L185.384 78.253L192.222 70.8023V85.3631C192.222 86.4275 193.088 87.279 194.17 87.279C195.252 87.279 196.118 86.4275 196.118 85.3631V66.5447L206.202 55.5178V69.3121C206.202 70.3766 207.068 71.2281 208.15 71.2281C209.232 71.2281 210.098 70.3766 210.098 69.3121V51.2601L212.478 48.6631C218.754 41.8936 221.481 34.4429 221.481 27.7586C221.481 16.3908 214.599 8.8125 204.125 8.8125H204.081Z" fill="#EA0029"></path>
  <path d="M162.349 62.1175C162.349 60.4571 160.964 59.0947 159.276 59.0947C157.588 59.0947 156.203 60.4571 156.203 62.1175C156.203 63.7781 157.588 65.1405 159.276 65.1405C160.964 65.1405 162.349 63.7781 162.349 62.1175Z" fill="#EA0029"></path>
  <path d="M216.623 52.8359C215.541 52.8359 214.676 53.6874 214.676 54.7518C214.676 55.8162 215.541 56.6677 216.623 56.6677C217.706 56.6677 218.57 55.8162 218.57 54.7518C218.57 53.6874 217.706 52.8359 216.623 52.8359Z" fill="#EA0029"></path>
  <path d="M197.579 94.8158C197.579 93.1554 196.194 91.793 194.506 91.793C192.819 91.793 191.434 93.1554 191.434 94.8158C191.434 96.4763 192.819 97.8386 194.506 97.8386C196.194 97.8386 197.579 96.4763 197.579 94.8158Z" fill="#EA0029"></path>
  <path d="M176.978 79.4462C176.978 78.3819 176.112 77.5303 175.03 77.5303C173.948 77.5303 173.083 78.3819 173.083 79.4462C173.083 80.5107 173.948 81.3622 175.03 81.3622C176.112 81.3622 176.978 80.5107 176.978 79.4462Z" fill="#EA0029"></path>
  <path d="M169.879 83.7888C169.879 83.1076 169.317 82.5967 168.667 82.5967C168.018 82.5967 167.455 83.1502 167.455 83.7888C167.455 84.4274 168.018 85.0234 168.667 85.0234C169.317 85.0234 169.879 84.47 169.879 83.7888Z" fill="#EA0029"></path>
  <path d="M71.1981 56.9238C68.5579 56.9238 66.3506 59.0951 66.3506 61.7348C66.3506 64.3745 68.5579 66.5459 71.1981 66.5459C73.8383 66.5459 76.1321 64.3745 76.1321 61.7348C76.1321 59.0951 73.9247 56.9238 71.1981 56.9238Z" fill="black"></path>
  <path d="M75.4392 69.9512H67.0859V96.8162H75.4392V69.9512Z" fill="black"></path>
  <path d="M108.247 69.9516V77.1469H113.094V88.6422C113.094 94.0067 116.557 97.2851 122.227 97.2851C124.866 97.2851 126.251 96.689 126.555 96.5187V89.7066C126.079 89.8343 125.256 89.962 124.347 89.962C122.53 89.962 121.317 89.366 121.317 87.152V77.1042H126.641V69.909H121.317V62.0752H113.829V65.5237C113.829 67.9931 112.445 69.909 109.588 69.909H108.203L108.247 69.9516Z" fill="black"></path>
  <path d="M12.8546 97.5835C14.6291 97.5835 16.1439 97.2429 17.3991 96.6042V91.1971C16.5767 91.4951 15.7111 91.6229 14.8888 91.6229C12.5949 91.6229 11.6427 90.2606 11.6427 88.8555C11.6427 86.9396 12.9412 86.1307 14.7157 85.8751L20.5587 84.9385V93.7517C20.5587 95.5825 20.7751 96.5617 20.8184 96.7744H28.3494C28.306 96.519 28.003 94.731 28.003 92.6022V79.4889C28.003 73.9541 24.757 69.1006 15.9275 69.1006C7.92052 69.1006 4.28489 74.167 3.93864 77.9988L11.1666 79.4463C11.3398 77.4452 12.9412 75.4868 15.841 75.4868C18.4811 75.4868 19.8661 76.8492 19.8661 78.4246C19.8661 79.3612 19.3901 80.0424 17.8753 80.2553L11.4696 81.2345C6.96833 81.8732 3.37598 84.5979 3.37598 89.3239C3.37598 93.5814 6.83849 97.4983 12.8113 97.4983L12.8546 97.5835Z" fill="black"></path>
  <path d="M52.4135 72.0374C51.7643 71.0155 49.7301 69.2699 45.0556 69.2699C37.3083 69.2699 31.8115 75.2731 31.8115 83.2773C31.8115 91.2815 37.6545 97.3697 45.3154 97.3697C46.8735 97.3697 48.2585 97.0717 49.4703 96.5607V89.2803C48.5615 89.7488 47.5227 90.0042 46.484 90.0042C43.2378 90.0042 40.338 87.7477 40.338 83.3198C40.338 78.892 43.2378 76.6781 46.484 76.6781C49.7301 76.6781 52.5433 78.7643 52.6299 83.1495V94.2192C52.6299 95.2835 52.8031 96.4756 52.8463 96.8162H60.8534C60.81 96.2201 60.637 94.432 60.637 92.0052V57.6895H52.4135V72.0799V72.0374Z" fill="black"></path>
  <path d="M142.093 76.849V69.1855C134.692 69.9092 129.151 75.6144 129.151 83.3631C129.151 91.6652 135.471 97.5833 143.651 97.5833C151.83 97.5833 158.15 91.7078 158.15 83.3631C158.15 75.5718 152.566 69.9092 145.208 69.1855V76.8916C147.719 77.5302 149.796 79.659 149.796 83.4057C149.796 87.9613 146.767 90.0474 143.651 90.0474C140.535 90.0474 137.505 87.9613 137.505 83.4057C137.505 79.6164 139.539 77.4876 142.093 76.8916V76.849Z" fill="black"></path>
  <path d="M94.05 69.1426C86.043 69.1426 79.6807 75.0179 79.6807 83.4054C79.6807 90.9837 85.134 96.5611 92.2755 97.4977V89.749C89.8084 88.9827 87.9906 86.8114 87.9906 83.4054C87.9906 79.0626 90.804 76.721 94.2664 76.721C97.5125 76.721 99.1573 78.6794 99.7631 80.7231L107.251 78.5091C106.039 73.6981 101.624 69.1426 94.1366 69.1426H94.05Z" fill="black"></path>
  <path d="M95.3486 89.9619V97.5828C102.057 97.1571 106.169 92.7293 107.337 88.2589L99.9797 86.0449C99.4604 87.8331 97.9456 89.5787 95.3486 89.9619Z" fill="black"></path>
  <path d="M229.997 32.6123C229.997 31.5479 229.131 30.6963 228.05 30.6963C226.967 30.6963 226.103 31.5479 226.103 32.6123C226.103 33.6766 226.967 34.5282 228.05 34.5282C229.131 34.5282 229.997 33.6766 229.997 32.6123Z" fill="#EA0029"></path>
  <path d="M149.71 8.72754C149.017 8.72754 148.498 9.28102 148.498 9.91963C148.498 10.5583 149.061 11.1544 149.71 11.1544C150.36 11.1544 150.966 10.6008 150.966 9.91963C150.966 9.23844 150.402 8.72754 149.71 8.72754Z" fill="#EA0029"></path>
  <path d="M202.903 2.38379C202.211 2.38379 201.691 2.93727 201.691 3.5759C201.691 4.21454 202.254 4.81059 202.903 4.81059C203.552 4.81059 204.158 4.25712 204.158 3.5759C204.158 2.8947 203.596 2.38379 202.903 2.38379Z" fill="#EA0029"></path>
  <path d="M216.276 3.02285C216.276 1.36242 214.891 0 213.204 0C211.516 0 210.131 1.36242 210.131 3.02285C210.131 4.6833 211.516 6.0457 213.204 6.0457C214.891 6.0457 216.276 4.6833 216.276 3.02285Z" fill="#EA0029"></path>
  <path d="M60.5073 8.3877H52.0674V48.0254H60.5073V8.3877Z" fill="black"></path>
  <path d="M67.6053 20.0957C66.3935 20.0957 65.0517 20.266 63.8398 20.6917V27.8018C64.2293 27.7167 64.6621 27.6315 65.0949 27.6315C68.1679 27.6315 69.5963 29.6752 69.5963 32.3574V48.0252H78.0794V30.9524C78.0794 24.9918 74.8332 20.0957 67.6053 20.0957Z" fill="black"></path>
  <path d="M164.578 39.2893V31.417H165.851V34.9247H169.778V31.417H171.051V39.2893H169.778V36.013H165.851V39.2893H164.578Z" fill="white"></path>
  <path d="M176.865 39.3943C174.523 39.3943 172.649 37.704 172.649 35.3539C172.649 33.0038 174.523 31.3135 176.865 31.3135C179.195 31.3135 181.068 33.0038 181.068 35.3539C181.068 37.704 179.195 39.3943 176.865 39.3943ZM176.865 38.2945C178.57 38.2945 179.771 37.0326 179.771 35.3539C179.771 33.6753 178.57 32.4133 176.865 32.4133C175.16 32.4133 173.947 33.6753 173.947 35.3539C173.947 37.0326 175.16 38.2945 176.865 38.2945Z" fill="white"></path>
  <path d="M184.007 39.2893V32.4936H181.581V31.417H187.694V32.4936H185.268V39.2893H184.007Z" fill="white"></path>
  <path d="M189.066 39.2893V31.417H194.254V32.4936H190.339V34.809H193.811V35.8625H190.339V38.2126H194.423V39.2893H189.066Z" fill="white"></path>
  <path d="M196.114 39.2893V31.417H197.388V38.2126H201.159V39.2893H196.114Z" fill="white"></path>
  <path d="M204.857 39.3934C203.307 39.3934 202.371 38.6525 201.914 37.7611L202.959 37.2054C203.343 37.819 203.836 38.3052 204.833 38.3052C205.662 38.3052 206.249 37.8769 206.249 37.2285C206.249 36.5455 205.769 36.2444 204.881 35.8624L204.34 35.631C203.151 35.1215 202.43 34.5426 202.43 33.3271C202.43 32.1578 203.368 31.3242 204.724 31.3242C205.806 31.3242 206.538 31.7178 207.03 32.5629L206.034 33.1533C205.721 32.6324 205.361 32.3893 204.724 32.3893C204.076 32.3893 203.667 32.7713 203.667 33.3038C203.667 33.8943 204.016 34.1607 204.845 34.5079L205.373 34.7394C206.767 35.33 207.511 35.9551 207.511 37.217C207.511 38.5946 206.393 39.3934 204.857 39.3934Z" fill="white"></path>
  <path d="M164.578 39.2893V31.417H165.851V34.9247H169.778V31.417H171.051V39.2893H169.778V36.013H165.851V39.2893H164.578Z" stroke="white" stroke-width="0.3"></path>
  <path d="M176.865 39.3943C174.523 39.3943 172.649 37.704 172.649 35.3539C172.649 33.0038 174.523 31.3135 176.865 31.3135C179.195 31.3135 181.068 33.0038 181.068 35.3539C181.068 37.704 179.195 39.3943 176.865 39.3943ZM176.865 38.2945C178.57 38.2945 179.771 37.0326 179.771 35.3539C179.771 33.6753 178.57 32.4133 176.865 32.4133C175.16 32.4133 173.947 33.6753 173.947 35.3539C173.947 37.0326 175.16 38.2945 176.865 38.2945Z" stroke="white" stroke-width="0.3"></path>
  <path d="M184.007 39.2893V32.4936H181.581V31.417H187.694V32.4936H185.268V39.2893H184.007Z" stroke="white" stroke-width="0.3"></path>
  <path d="M189.066 39.2893V31.417H194.254V32.4936H190.339V34.809H193.811V35.8625H190.339V38.2126H194.423V39.2893H189.066Z" stroke="white" stroke-width="0.3"></path>
  <path d="M196.114 39.2893V31.417H197.388V38.2126H201.159V39.2893H196.114Z" stroke="white" stroke-width="0.3"></path>
  <path d="M204.857 39.3934C203.307 39.3934 202.371 38.6525 201.914 37.7611L202.959 37.2054C203.343 37.819 203.836 38.3052 204.833 38.3052C205.662 38.3052 206.249 37.8769 206.249 37.2285C206.249 36.5455 205.769 36.2444 204.881 35.8624L204.34 35.631C203.151 35.1215 202.43 34.5426 202.43 33.3271C202.43 32.1578 203.368 31.3242 204.724 31.3242C205.806 31.3242 206.538 31.7178 207.03 32.5629L206.034 33.1533C205.721 32.6324 205.361 32.3893 204.724 32.3893C204.076 32.3893 203.667 32.7713 203.667 33.3038C203.667 33.8943 204.016 34.1607 204.845 34.5079L205.373 34.7394C206.767 35.33 207.511 35.9551 207.511 37.217C207.511 38.5946 206.393 39.3934 204.857 39.3934Z" stroke="white" stroke-width="0.3"></path>
</svg>
