<svg xmlns="http://www.w3.org/2000/svg" width="41" height="50" viewBox="0 0 41 50" fill="none"><g clip-path="url(#clip0_12_159)"><path d="M28.1986 4.49902C23.302 4.49902 21.631 7.034 18.7672 10.7019C15.9034 7.034 14.2293 4.49902 9.33574 4.49902C4.08344 4.49902 0.618774 8.37024 0.618774 14.1756C0.618774 16.1246 1.07316 18.2022 2.05367 20.2798V26.9969C2.05367 27.538 2.4931 27.9744 3.03119 27.9744C3.56927 27.9744 4.00871 27.535 4.00871 26.9969V23.4785C4.36145 23.9418 4.7411 24.3992 5.15363 24.8536L9.15339 29.3017V37.4597C9.15339 38.0008 9.58984 38.4372 10.1339 38.4372C10.678 38.4372 11.1114 38.0008 11.1114 37.4597V31.478L18.7672 40.0006L22.2019 36.1832V43.6178C22.2019 44.1588 22.6414 44.5953 23.1824 44.5953C23.7235 44.5953 24.16 44.1588 24.16 43.6178V34.007L29.2239 28.3631V35.406C29.2239 35.9471 29.6634 36.3835 30.2045 36.3835C30.7455 36.3835 31.182 35.9441 31.182 35.406V26.1838L32.3747 24.8565C35.5375 21.3889 36.9096 17.5864 36.9096 14.1816C36.9096 8.37622 33.4479 4.50799 28.1926 4.50799L28.1986 4.49902Z" fill="#EA0029"></path><path d="M6.95629 31.7349C6.95629 30.8829 6.26575 30.1924 5.4108 30.1924C4.55584 30.1924 3.86829 30.8829 3.86829 31.7349C3.86829 32.5869 4.55883 33.2774 5.4108 33.2774C6.26276 33.2774 6.95629 32.5869 6.95629 31.7349Z" fill="#EA0029"></path><path d="M34.2402 27.0088C33.6991 27.0088 33.2596 27.4482 33.2596 27.9893C33.2596 28.5304 33.6991 28.9698 34.2402 28.9698C34.7812 28.9698 35.2237 28.5304 35.2237 27.9893C35.2237 27.4482 34.7812 27.0088 34.2402 27.0088Z" fill="#EA0029"></path><path d="M24.6832 48.4605C24.6832 47.6056 23.9926 46.915 23.1407 46.915C22.2887 46.915 21.5981 47.6026 21.5981 48.4605C21.5981 49.3185 22.2887 50.0001 23.1407 50.0001C23.9926 50.0001 24.6832 49.3095 24.6832 48.4605Z" fill="#EA0029"></path><path d="M14.325 40.6017C14.325 40.0606 13.8855 39.6182 13.3445 39.6182C12.8034 39.6182 12.361 40.0606 12.361 40.6017C12.361 41.1427 12.8004 41.5822 13.3445 41.5822C13.8885 41.5822 14.325 41.1427 14.325 40.6017Z" fill="#EA0029"></path><path d="M10.7497 42.8224C10.7497 42.4816 10.4717 42.2036 10.1309 42.2036C9.7901 42.2036 9.51208 42.4816 9.51208 42.8224C9.51208 43.1632 9.78711 43.4442 10.1309 43.4442C10.4747 43.4442 10.7497 43.1662 10.7497 42.8224Z" fill="#EA0029"></path><path d="M40.9722 16.6744C40.9722 16.1333 40.5327 15.6909 39.9917 15.6909C39.4506 15.6909 39.0082 16.1333 39.0082 16.6744C39.0082 17.2155 39.4476 17.6549 39.9917 17.6549C40.5357 17.6549 40.9722 17.2155 40.9722 16.6744Z" fill="#EA0029"></path><path d="M0.618797 4.46924C0.27801 4.46924 0 4.74725 0 5.08804C0 5.42882 0.27801 5.70982 0.618797 5.70982C0.959584 5.70982 1.24058 5.43181 1.24058 5.08804C1.24058 4.74426 0.962573 4.46924 0.618797 4.46924Z" fill="#EA0029"></path><path d="M27.3527 1.22559C27.0119 1.22559 26.7339 1.5036 26.7339 1.84438C26.7339 2.18517 27.0119 2.46617 27.3527 2.46617C27.6935 2.46617 27.9745 2.18816 27.9745 1.84438C27.9745 1.50061 27.6965 1.22559 27.3527 1.22559Z" fill="#EA0029"></path><path d="M34.0698 1.5455C34.0698 0.690542 33.3792 0 32.5272 0C31.6753 0 30.9847 0.687552 30.9847 1.5455C30.9847 2.40344 31.6753 3.08502 32.5272 3.08502C33.3792 3.08502 34.0698 2.39448 34.0698 1.5455Z" fill="#EA0029"></path></g><defs><clipPath id="clip0_12_159"><rect width="40.9721" height="50" fill="white"></rect></clipPath></defs></svg>