<svg xmlns="http://www.w3.org/2000/svg" width="92" height="40" viewBox="0 0 92 40" fill="none"><g clip-path="url(#clip0_11_106)"><path d="M80.904 3.59961C76.9867 3.59961 75.6499 5.62759 73.3589 8.56194C71.0678 5.62759 69.7286 3.59961 65.8137 3.59961C61.6119 3.59961 58.8425 6.69419 58.8425 11.3385C58.8425 12.8977 59.206 14.5598 59.9904 16.2219V21.5955C59.9904 22.0284 60.342 22.3776 60.7725 22.3776C61.2029 22.3776 61.5545 22.026 61.5545 21.5955V18.7808C61.8367 19.1514 62.1404 19.5173 62.4704 19.8808L65.6702 23.4394V29.9657C65.6702 30.3986 66.0194 30.7478 66.4546 30.7478C66.8899 30.7478 67.2366 30.3986 67.2366 29.9657V25.1804L73.3612 31.9985L76.1091 28.9446V34.8922C76.1091 35.3251 76.4606 35.6742 76.8935 35.6742C77.3263 35.6742 77.6755 35.3251 77.6755 34.8922V27.2036L81.7267 22.6885V28.3228C81.7267 28.7557 82.0782 29.1048 82.5111 29.1048C82.9439 29.1048 83.2931 28.7533 83.2931 28.3228V20.9451L84.2473 19.8832C86.7775 17.1091 87.8752 14.0671 87.8752 11.3432C87.8752 6.69898 85.1058 3.60439 80.9016 3.60439L80.904 3.59961Z" fill="#EA0029"></path><path d="M63.9101 25.3883C63.9101 24.7067 63.3577 24.1543 62.6737 24.1543C61.9897 24.1543 61.4397 24.7067 61.4397 25.3883C61.4397 26.0699 61.9921 26.6223 62.6737 26.6223C63.3553 26.6223 63.9101 26.0699 63.9101 25.3883Z" fill="#EA0029"></path><path d="M85.7372 21.6074C85.3043 21.6074 84.9528 21.959 84.9528 22.3918C84.9528 22.8247 85.3043 23.1762 85.7372 23.1762C86.17 23.1762 86.524 22.8247 86.524 22.3918C86.524 21.959 86.17 21.6074 85.7372 21.6074Z" fill="#EA0029"></path><path d="M78.0916 38.7686C78.0916 38.0847 77.5391 37.5322 76.8575 37.5322C76.176 37.5322 75.6235 38.0823 75.6235 38.7686C75.6235 39.455 76.176 40.0002 76.8575 40.0002C77.5391 40.0002 78.0916 39.4478 78.0916 38.7686Z" fill="#EA0029"></path><path d="M69.8051 32.4811C69.8051 32.0483 69.4535 31.6943 69.0207 31.6943C68.5878 31.6943 68.2339 32.0483 68.2339 32.4811C68.2339 32.914 68.5854 33.2655 69.0207 33.2655C69.4559 33.2655 69.8051 32.914 69.8051 32.4811Z" fill="#EA0029"></path><path d="M66.9472 34.2577C66.9472 33.9851 66.7248 33.7627 66.4522 33.7627C66.1796 33.7627 65.9572 33.9851 65.9572 34.2577C65.9572 34.5304 66.1772 34.7552 66.4522 34.7552C66.7272 34.7552 66.9472 34.5328 66.9472 34.2577Z" fill="#EA0029"></path><path d="M23.8384 5.36133V6.7747C23.8384 7.79108 23.2859 8.56353 22.1356 8.56353H21.5856V11.5003H23.5275V16.2067C23.5275 18.3925 24.9193 19.7389 27.1936 19.7389C28.253 19.7389 28.8055 19.495 28.937 19.4304V16.6491C28.7385 16.6922 28.4085 16.7592 28.0522 16.7592C27.3251 16.7592 26.8373 16.5176 26.8373 15.6112V11.5027H28.98V8.56592H26.8373V5.36372H23.8336L23.8384 5.36133Z" fill="#1D1D1B"></path><path d="M27.2558 23.2695C26.1964 23.2695 25.3115 24.152 25.3115 25.2353C25.3115 26.3187 26.194 27.2011 27.2558 27.2011C28.3176 27.2011 29.2431 26.3187 29.2431 25.2353C29.2431 24.152 28.3607 23.2695 27.2558 23.2695Z" fill="#1D1D1B"></path><path d="M28.9538 28.5898H25.5985V39.5668H28.9538V28.5898Z" fill="#1D1D1B"></path><path d="M42.1619 28.5904V31.5296H44.1062V36.2336C44.1062 38.4218 45.4957 39.7682 47.7724 39.7682C48.8318 39.7682 49.3842 39.5267 49.5182 39.4597V36.676C49.3197 36.7215 48.9872 36.7861 48.6333 36.7861C47.9039 36.7861 47.4184 36.5421 47.4184 35.6381V31.532H49.5612V28.5928H47.4184V25.3906H44.4147V26.804C44.4147 27.8204 43.8623 28.5928 42.712 28.5928H42.1595L42.1619 28.5904Z" fill="#1D1D1B"></path><path d="M3.80002 39.8898C4.50551 39.8898 5.11534 39.7439 5.62473 39.4904V37.2783C5.2947 37.4074 4.94076 37.46 4.61552 37.46C3.68762 37.46 3.31216 36.9076 3.31216 36.3336C3.31216 35.5588 3.84307 35.2288 4.54856 35.1188L6.88982 34.7433V38.3425C6.88982 39.0934 6.97831 39.4904 6.99983 39.5789H10.0251C10.0035 39.4665 9.89353 38.7395 9.89353 37.8761V32.5096C9.89353 30.2545 8.59017 28.2695 5.03403 28.2695C1.81031 28.2695 0.351499 30.3453 0.219967 31.9142L3.13519 32.512C3.20215 31.6941 3.84307 30.9002 5.01251 30.9002C6.07193 30.9002 6.62437 31.4526 6.62437 32.0935C6.62437 32.469 6.42587 32.756 5.83039 32.8444L3.2452 33.2414C1.43484 33.5069 -0.00244141 34.6118 -0.00244141 36.556C-0.00244141 38.2994 1.3894 39.8898 3.79763 39.8898H3.80002Z" fill="#1D1D1B"></path><path d="M19.701 29.4536C19.4356 29.0327 18.6201 28.3272 16.7428 28.3272C13.629 28.3272 11.4193 30.7785 11.4193 34.0476C11.4193 37.3168 13.7606 39.8111 16.8528 39.8111C17.4698 39.8111 18.0389 39.6915 18.5244 39.4859V36.5061C18.1609 36.7069 17.7472 36.8098 17.3167 36.8098C16.0134 36.8098 14.8439 35.8819 14.8439 34.0715C14.8439 32.2612 16.0157 31.3548 17.3167 31.3548C18.6177 31.3548 19.7536 32.2157 19.7871 33.9926H19.7895V38.5101C19.7895 38.9526 19.8565 39.438 19.878 39.5696H23.1017C23.0802 39.3256 23.0132 38.5962 23.0132 37.6061V23.5801H19.701V29.456V29.4536Z" fill="#1D1D1B"></path><path d="M55.7742 31.415V28.2773C52.7968 28.5691 50.5775 30.8984 50.5775 34.0791C50.5775 37.4798 53.1173 39.888 56.4103 39.888C59.7034 39.888 62.2408 37.4798 62.2408 34.0791C62.2408 30.9008 60.0024 28.5715 57.0417 28.2773V31.4198C58.0461 31.6756 58.8808 32.5557 58.8808 34.0767C58.8808 35.9325 57.6659 36.7934 56.408 36.7934C55.15 36.7934 53.9328 35.9325 53.9328 34.0767C53.9328 32.5342 54.7578 31.6637 55.7742 31.415Z" fill="#1D1D1B"></path><path d="M48.1597 11.3886V8.25098C45.1823 8.54274 42.963 10.872 42.963 14.0503C42.963 17.4534 45.5028 19.8593 48.7935 19.8593C52.0841 19.8593 54.6239 17.451 54.6239 14.0503C54.6239 10.872 52.3879 8.54274 49.4272 8.25098V11.3934C50.4316 11.6517 51.2686 12.5317 51.2686 14.0503C51.2686 15.9061 50.0538 16.7671 48.7935 16.7671C47.5331 16.7671 46.3207 15.9061 46.3207 14.0503C46.3207 12.5078 47.1457 11.6373 48.1597 11.3886Z" fill="#1D1D1B"></path><path d="M35.3438 21.1554C34.0834 21.1554 33.201 20.383 32.981 19.3212L30.0227 20.1606C30.3312 22.1264 32.3424 24.0707 35.5016 24.0707C39.6102 24.0707 41.3751 21.3324 41.3751 18.1733V8.56666H38.1729V9.73849C37.8644 9.16453 36.9126 8.36816 35.1261 8.36816C32.1224 8.36816 30.0251 10.841 30.0251 13.7347C30.0251 16.7814 32.2109 19.0796 35.1261 19.0796C35.7934 19.0796 36.3482 18.9648 36.7978 18.7903V15.9372C36.4797 16.0831 36.1186 16.1644 35.724 16.1644C34.3776 16.1644 33.3612 15.2389 33.3612 13.7347C33.3612 12.2304 34.4661 11.3049 35.724 11.3049C36.9819 11.3049 38.0653 12.2328 38.0653 13.7347V18.3502C38.0653 20.3399 37.0274 21.1554 35.3485 21.1554H35.3438Z" fill="#1D1D1B"></path><path d="M15.0687 16.7766C12.926 16.7766 11.955 15.5187 11.8211 14.0814L8.6189 14.8539C8.83891 17.0636 10.6947 19.8664 15.0233 19.8664C18.7564 19.8664 20.8107 17.3697 20.8107 14.9185C20.8107 12.6896 19.2634 10.7668 16.2836 10.2144L14.1863 9.81741C13.1029 9.62131 12.6414 9.06649 12.6414 8.31556C12.6414 7.56463 13.2369 6.89741 14.203 6.69652V3.57324C11.4624 3.83152 9.19524 5.81885 9.19524 8.58102C9.19524 10.9008 10.8071 12.6657 13.4569 13.1751L15.5996 13.572C16.6376 13.7705 17.2785 14.3445 17.2785 15.1385C17.2785 16.1118 16.4391 16.7719 15.0711 16.7719L15.0687 16.7766Z" fill="#1D1D1B"></path><path d="M15.5686 6.72532C16.8504 7.0123 17.2952 7.98803 17.3885 8.60503L20.5237 7.72018C20.2152 6.01266 18.9071 3.8651 15.5662 3.57812V6.72532H15.5686Z" fill="#1D1D1B"></path><path d="M36.4415 28.2627C33.2153 28.2627 30.6541 30.6685 30.6541 34.0931C30.6541 37.1973 32.8447 39.474 35.7144 39.8471V36.6807C34.722 36.3651 33.9902 35.473 33.9902 34.0955C33.9902 32.3282 35.1166 31.3573 36.5084 31.3573C37.8118 31.3573 38.4742 32.1536 38.7181 32.9907L41.7219 32.0867C41.234 30.1209 39.4667 28.2651 36.4438 28.2651L36.4415 28.2627Z" fill="#1D1D1B"></path><path d="M36.9724 36.7767V39.888C39.6628 39.7158 41.3249 37.9102 41.7864 36.0807L38.8258 35.1768C38.6105 35.9014 38.0127 36.6236 36.97 36.7791L36.9724 36.7767Z" fill="#1D1D1B"></path><path d="M91.1228 13.3395C91.1228 12.9067 90.7713 12.5527 90.3384 12.5527C89.9056 12.5527 89.5516 12.9067 89.5516 13.3395C89.5516 13.7724 89.9032 14.1239 90.3384 14.1239C90.7737 14.1239 91.1228 13.7724 91.1228 13.3395Z" fill="#EA0029"></path><path d="M58.8426 3.5752C58.5699 3.5752 58.3475 3.7976 58.3475 4.07023C58.3475 4.34286 58.5699 4.56766 58.8426 4.56766C59.1152 4.56766 59.34 4.34525 59.34 4.07023C59.34 3.79521 59.1176 3.5752 58.8426 3.5752Z" fill="#EA0029"></path><path d="M80.2295 0.980469C79.9569 0.980469 79.7345 1.20288 79.7345 1.47551C79.7345 1.74814 79.9569 1.97294 80.2295 1.97294C80.5022 1.97294 80.727 1.75053 80.727 1.47551C80.727 1.20049 80.5046 0.980469 80.2295 0.980469Z" fill="#EA0029"></path><path d="M85.6008 1.2364C85.6008 0.552433 85.0484 0 84.3668 0C83.6852 0 83.1328 0.550042 83.1328 1.2364C83.1328 1.92275 83.6852 2.46801 84.3668 2.46801C85.0484 2.46801 85.6008 1.91558 85.6008 1.2364Z" fill="#EA0029"></path></g><defs><clipPath id="clip0_11_106"><rect width="91.1228" height="40" fill="white"></rect></clipPath></defs></svg>
