<?xml version="1.0" encoding="UTF-8"?>
<svg xmlns="http://www.w3.org/2000/svg" width="230" height="100" viewBox="0 0 230 100" fill="none">
  <mask id="mask0_2019_5218" style="mask-type:luminance" maskUnits="userSpaceOnUse" x="0" y="0" width="228" height="100">
    <path d="M227.807 0H0V100H227.807V0Z" fill="white"></path>
  </mask>
  <g mask="url(#mask0_2019_5218)">
    <path d="M202.26 8.99902C192.467 8.99902 189.125 14.069 183.397 21.4048C177.67 14.069 174.322 8.99902 164.534 8.99902C154.03 8.99902 147.106 16.7355 147.106 28.3462C147.106 32.2442 148.015 36.3995 149.976 40.5547V53.9888C149.976 55.071 150.855 55.944 151.931 55.944C153.007 55.944 153.886 55.065 153.886 53.9888V46.952C154.592 47.8785 155.351 48.7933 156.176 49.702L164.176 58.5985V74.9143C164.176 75.9965 165.049 76.8695 166.137 76.8695C167.225 76.8695 168.092 75.9965 168.092 74.9143V62.951L183.403 79.9963L190.273 72.3615V87.2305C190.273 88.3128 191.152 89.1855 192.234 89.1855C193.316 89.1855 194.189 88.3128 194.189 87.2305V68.009L204.317 56.7212V70.807C204.317 71.8892 205.196 72.762 206.278 72.762C207.36 72.762 208.233 71.8832 208.233 70.807V52.3628L210.618 49.708C216.944 42.7727 219.688 35.1677 219.688 28.358C219.688 16.7474 212.765 9.01097 202.254 9.01097L202.26 8.99902Z" fill="white"></path>
    <path d="M159.776 63.4707C159.776 61.7667 158.395 60.3857 156.685 60.3857C154.975 60.3857 153.6 61.7667 153.6 63.4707C153.6 65.1747 154.981 66.5557 156.685 66.5557C158.389 66.5557 159.776 65.1747 159.776 63.4707Z" fill="white"></path>
    <path d="M214.343 54.0186C213.261 54.0186 212.382 54.8976 212.382 55.9796C212.382 57.0618 213.261 57.9406 214.343 57.9406C215.425 57.9406 216.31 57.0618 216.31 55.9796C216.31 54.8976 215.425 54.0186 214.343 54.0186Z" fill="white"></path>
    <path d="M195.229 96.9211C195.229 95.2114 193.848 93.8301 192.144 93.8301C190.44 93.8301 189.059 95.2054 189.059 96.9211C189.059 98.6371 190.44 99.9997 192.144 99.9997C193.848 99.9997 195.229 98.6191 195.229 96.9211Z" fill="white"></path>
    <path d="M174.513 81.2023C174.513 80.1203 173.634 79.2354 172.552 79.2354C171.47 79.2354 170.585 80.1203 170.585 81.2023C170.585 82.2846 171.464 83.1633 172.552 83.1633C173.64 83.1633 174.513 82.2846 174.513 81.2023Z" fill="white"></path>
    <path d="M167.369 85.6438C167.369 84.9623 166.813 84.4062 166.131 84.4062C165.45 84.4062 164.894 84.9623 164.894 85.6438C164.894 86.3256 165.444 86.8876 166.131 86.8876C166.819 86.8876 167.369 86.3316 167.369 85.6438Z" fill="white"></path>
    <path d="M59.5959 13.4033V16.9367C59.5959 19.4777 58.2146 21.4088 55.3389 21.4088H53.9639V28.7507H58.8186V40.5167C58.8186 45.9812 62.2981 49.3472 67.9839 49.3472C70.6324 49.3472 72.0136 48.7375 72.3424 48.576V41.6227C71.8461 41.7305 71.0211 41.898 70.1304 41.898C68.3126 41.898 67.0931 41.294 67.0931 39.028V28.7567H72.4499V21.4148H67.0931V13.4093H59.5839L59.5959 13.4033Z" fill="white"></path>
    <path d="M68.14 58.1738C65.4915 58.1738 63.2793 60.3801 63.2793 63.0883C63.2793 65.7968 65.4855 68.0028 68.14 68.0028C70.7945 68.0028 73.1083 65.7968 73.1083 63.0883C73.1083 60.3801 70.9023 58.1738 68.14 58.1738Z" fill="white"></path>
    <path d="M72.3843 71.4746H63.9961V98.9171H72.3843V71.4746Z" fill="white"></path>
    <path d="M105.405 71.4761V78.8241H110.266V90.5841C110.266 96.0546 113.74 99.4206 119.432 99.4206C122.08 99.4206 123.461 98.8168 123.796 98.6493V91.6901C123.3 91.8038 122.469 91.9653 121.584 91.9653C119.76 91.9653 118.547 91.3553 118.547 89.0953V78.8301H123.904V71.4821H118.547V63.4766H111.037V67.0101C111.037 69.5511 109.656 71.4821 106.781 71.4821H105.399L105.405 71.4761Z" fill="white"></path>
    <path d="M9.50029 99.7246C11.264 99.7246 12.7886 99.3598 14.0621 98.7261V93.1958C13.237 93.5186 12.3521 93.6501 11.539 93.6501C9.21929 93.6501 8.28064 92.2691 8.28064 90.8341C8.28064 88.8971 9.60792 88.0721 11.3716 87.7971L17.2248 86.8583V95.8563C17.2248 97.7336 17.446 98.7261 17.4998 98.9473H25.063C25.009 98.6663 24.7341 96.8488 24.7341 94.6903V81.2741C24.7341 75.6363 21.4757 70.6738 12.5853 70.6738C4.52602 70.6738 0.878992 75.8633 0.550162 79.7856L7.83822 81.2801C8.00562 79.2353 9.60792 77.2506 12.5315 77.2506C15.1801 77.2506 16.5612 78.6315 16.5612 80.2338C16.5612 81.1725 16.0649 81.8901 14.5762 82.1111L8.11324 83.1036C3.58734 83.7673 -0.00585938 86.5296 -0.00585938 91.3901C-0.00585938 95.7486 3.47374 99.7246 9.49432 99.7246H9.50029Z" fill="white"></path>
    <path d="M49.2531 73.6339C48.5896 72.5817 46.5508 70.8179 41.8576 70.8179C34.0731 70.8179 28.5488 76.9462 28.5488 85.1189C28.5488 93.2919 34.4021 99.5277 42.1326 99.5277C43.6751 99.5277 45.0978 99.2287 46.3116 98.7147V91.2652C45.4028 91.7672 44.3686 92.0244 43.2923 92.0244C40.0341 92.0244 37.1103 89.7047 37.1103 85.1787C37.1103 80.6529 40.0398 78.3869 43.2923 78.3869C46.5448 78.3869 49.3846 80.5392 49.4683 84.9814H49.4743V96.2752C49.4743 97.3815 49.6418 98.5949 49.6956 98.9239H57.7548C57.7011 98.3139 57.5336 96.4904 57.5336 94.0152V58.9502H49.2531V73.6399V73.6339Z" fill="white"></path>
    <path d="M139.436 78.5377V70.6934C131.993 71.4229 126.444 77.2462 126.444 85.1979C126.444 93.6997 132.794 99.7202 141.026 99.7202C149.259 99.7202 155.603 93.6997 155.603 85.1979C155.603 77.2522 150.007 71.4289 142.605 70.6934V78.5497C145.116 79.1892 147.203 81.3894 147.203 85.1919C147.203 89.8314 144.165 91.9837 141.021 91.9837C137.876 91.9837 134.833 89.8314 134.833 85.1919C134.833 81.3357 136.895 79.1594 139.436 78.5377Z" fill="white"></path>
    <path d="M120.4 28.4711V20.627C112.956 21.3564 107.408 27.1796 107.408 35.1253C107.408 43.6331 113.758 49.6478 121.984 49.6478C130.211 49.6478 136.56 43.6271 136.56 35.1253C136.56 27.1796 130.97 21.3564 123.569 20.627V28.4831C126.08 29.1288 128.172 31.3288 128.172 35.1253C128.172 39.7648 125.135 41.9173 121.984 41.9173C118.833 41.9173 115.802 39.7648 115.802 35.1253C115.802 31.2691 117.865 29.0928 120.4 28.4711Z" fill="white"></path>
    <path d="M88.3594 52.888C85.2084 52.888 83.0024 50.957 82.4524 48.3025L75.0566 50.401C75.8279 55.3155 80.8559 60.1763 88.7539 60.1763C99.0254 60.1763 103.438 53.3305 103.438 45.4328V21.4162H95.4321V24.3457C94.6609 22.9108 92.2814 20.9199 87.8151 20.9199C80.3059 20.9199 75.0626 27.102 75.0626 34.3363C75.0626 41.953 80.5271 47.6985 87.8151 47.6985C89.4834 47.6985 90.8704 47.4115 91.9944 46.9753V39.8425C91.1991 40.2073 90.2964 40.4105 89.3099 40.4105C85.9439 40.4105 83.4029 38.0968 83.4029 34.3363C83.4029 30.5755 86.1651 28.2618 89.3099 28.2618C92.4546 28.2618 95.1631 30.5815 95.1631 34.3363V45.875C95.1631 50.8493 92.5684 52.888 88.3711 52.888H88.3594Z" fill="white"></path>
    <path d="M37.6724 41.942C32.3156 41.942 29.8881 38.7973 29.5534 35.204L21.5479 37.1353C22.0979 42.6595 26.7374 49.6665 37.5589 49.6665C46.8916 49.6665 52.0273 43.4248 52.0273 37.2968C52.0273 31.7245 48.1591 26.9175 40.7096 25.5365L35.4664 24.544C32.7579 24.0538 31.6041 22.6667 31.6041 20.7894C31.6041 18.9121 33.0929 17.244 35.5081 16.7418V8.93359C28.6566 9.57929 22.9887 14.5476 22.9887 21.4531C22.9887 27.2525 27.0183 31.6648 33.6428 32.9383L38.9996 33.9305C41.5946 34.4268 43.1968 35.8618 43.1968 37.8468C43.1968 40.28 41.0984 41.9303 37.6784 41.9303L37.6724 41.942Z" fill="white"></path>
    <path d="M38.922 16.8133C42.1265 17.5308 43.2385 19.9701 43.4718 21.5126L51.3098 19.3005C50.5385 15.0317 47.2683 9.66276 38.916 8.94531V16.8133H38.922Z" fill="white"></path>
    <path d="M91.1042 70.6562C83.0387 70.6562 76.6357 76.6707 76.6357 85.2322C76.6357 92.9927 82.1122 98.6845 89.2865 99.6172V91.7012C86.8055 90.9122 84.976 88.6821 84.976 85.2383C84.976 80.8201 87.792 78.3928 91.2715 78.3928C94.53 78.3928 96.186 80.3835 96.7957 82.4762L104.305 80.2162C103.085 75.3017 98.6672 70.6622 91.11 70.6622L91.1042 70.6562Z" fill="white"></path>
    <path d="M92.4308 91.9422V99.7204C99.1568 99.2899 103.312 94.7759 104.466 90.2022L97.0643 87.9424C96.5261 89.7539 95.0316 91.5594 92.4248 91.9482L92.4308 91.9422Z" fill="white"></path>
    <path d="M227.807 33.3488C227.807 32.2668 226.928 31.3818 225.846 31.3818C224.764 31.3818 223.879 32.2668 223.879 33.3488C223.879 34.4311 224.758 35.3098 225.846 35.3098C226.934 35.3098 227.807 34.4311 227.807 33.3488Z" fill="white"></path>
    <path d="M147.107 8.93848C146.425 8.93848 145.869 9.49448 145.869 10.1761C145.869 10.8576 146.425 11.4196 147.107 11.4196C147.788 11.4196 148.35 10.8636 148.35 10.1761C148.35 9.4885 147.794 8.93848 147.107 8.93848Z" fill="white"></path>
    <path d="M200.574 2.45117C199.893 2.45117 199.337 3.0072 199.337 3.68877C199.337 4.37035 199.893 4.93235 200.574 4.93235C201.256 4.93235 201.818 4.37632 201.818 3.68877C201.818 3.00122 201.262 2.45117 200.574 2.45117Z" fill="white"></path>
    <path d="M214.002 3.091C214.002 1.38108 212.621 0 210.917 0C209.213 0 207.832 1.37511 207.832 3.091C207.832 4.80687 209.213 6.17002 210.917 6.17002C212.621 6.17002 214.002 4.78895 214.002 3.091Z" fill="white"></path>
  </g>
</svg>
