<svg xmlns="http://www.w3.org/2000/svg" width="89" height="98" viewBox="0 0 89 98" fill="none"><g clip-path="url(#clip0_19_148)"><path d="M0.5 0.5H87.64V82.63H0.5V0.5Z" stroke="white"></path><path d="M67.8201 52.5499L67.1501 51.3899L66.9701 53.5099C66.6701 53.9799 66.1001 54.4399 65.3101 54.9199C65.9301 54.7999 66.3701 54.7899 66.6501 54.8499C66.5301 55.6099 66.3301 56.3199 66.0901 56.9599L67.3701 54.7899L68.4501 54.5999L68.0701 53.1999L69.0901 50.9399C68.7101 51.5299 68.3001 52.0399 67.8101 52.5399L67.8201 52.5499Z" fill="white"></path><path d="M65.99 40.8102C66.89 41.7102 67.62 42.9302 68.13 44.4202C67.66 46.1902 67.05 47.6102 66.3 48.6602L69.01 46.7502C69.01 46.7502 69.69 48.9802 69.72 50.2302C70.13 48.8802 70.33 47.2502 70.33 45.3502L71.92 43.1702L70.26 42.2002C70.15 40.1302 69.83 38.3602 69.28 36.9502C69.36 38.5202 68.84 41.6102 68.84 41.6102C68.02 41.1802 67.07 40.9202 65.99 40.8002V40.8102Z" fill="white"></path><path d="M60.91 34.96C61.08 36.18 61.11 37.38 61.07 38.51L58.42 39.44L61.01 40.89L60.66 44.44L62.61 41.85L64.75 43.63L63.59 40.16L65.13 37.52L62.81 38.06L60.93 34.97L60.91 34.96Z" fill="white"></path><path d="M65.28 32.5098L66.0101 34.7898L66.31 33.4398L67.6101 34.5198L66.5501 32.2098L66.9401 30.6598L65.5801 31.0198L63.94 29.3198L64.88 31.2298L63.3 31.6798L65.28 32.5098Z" fill="white"></path><path d="M54.7001 34.4498L55.5901 36.7298L56.0601 35.3098C56.8501 35.7498 57.5501 36.2298 58.1601 36.7398L56.2901 34.5498L56.5201 33.3598H55.1701L53.0301 31.5098L54.2001 33.3498L52.4301 33.4098L54.7001 34.4498Z" fill="white"></path><path d="M56.08 19.8498L54.41 21.6798C52.95 20.7698 51.38 20.0998 49.73 19.5698C51.08 20.7698 52.22 22.1598 53.15 23.7298L50.23 27.2798L55.19 26.8098L58.24 32.5298L57.9 26.6998L61.63 26.9398C60.24 25.5998 58.8 24.4398 57.34 23.4798L56.09 19.8498H56.08Z" fill="white"></path><path d="M44.4801 47.23H42.0601V56.8H44.4801V47.23Z" fill="white"></path><path d="M46.42 56.7999H48.84V42.3999L46.42 43.4699V56.7999Z" fill="white"></path><path d="M44.4801 44.3999L42.0601 45.4699V46.4899H44.4801V44.3999Z" fill="white"></path><path d="M35.67 46.2097C34.4 46.2097 33.18 46.6697 32.57 47.4197V42.4097L30.14 43.4797V56.8097H32.57V50.7497C32.57 49.0697 33.49 48.0997 35.11 48.0997C36.73 48.0997 37.65 48.8497 37.65 50.9497V56.8097H40.08V50.8597C40.08 47.7997 38.55 46.2197 35.68 46.2197L35.67 46.2097Z" fill="white"></path><path d="M22.88 54.9397C20.01 54.9397 18.46 52.9797 18.46 49.8797C18.46 46.7797 20.01 44.8197 22.88 44.8197C24.57 44.8197 25.45 45.3597 26.29 46.4797L28.48 45.3297C27.35 43.6497 25.56 42.7397 22.88 42.7397C18.62 42.7397 15.92 45.6797 15.92 49.8697C15.92 54.0597 18.63 56.9997 22.88 56.9997C25.38 56.9997 27.38 56.0497 28.55 54.3497L26.5 53.1997C25.65 54.3197 24.59 54.9197 22.87 54.9197L22.88 54.9397Z" fill="white"></path><path d="M60.9401 51.41C60.9401 48.61 59.2401 46.21 55.7401 46.21C52.5401 46.21 50.3301 48.11 50.3301 51.62C50.3301 55.13 52.7801 57.01 55.6701 57.01C57.5501 57.01 58.8401 56.52 59.9301 55.64L58.4901 54.34C57.6701 54.85 56.8401 55.17 55.8101 55.17C54.3001 55.17 52.9601 54.32 52.7001 52.33H60.8601C60.8801 52.11 60.9301 51.78 60.9301 51.4L60.9401 51.41ZM52.7501 50.66C52.9601 49 53.9501 48.06 55.5701 48.06C57.5701 48.06 58.3701 49.24 58.4901 50.66H52.7501Z" fill="white"></path><path d="M24.91 88.5L20.14 97.05H18.17L17.02 91.16L13.68 97.05H11.74L10.17 88.5H12L13.09 94.79L16.66 88.5H18.37L19.51 94.79L23.03 88.5H24.92H24.91Z" fill="white"></path><path d="M33.13 93.3702H26.34C26.37 94.7302 27.16 95.4702 28.8 95.4702C29.78 95.4702 30.67 95.1501 31.26 94.5901L32.09 95.9802C31.19 96.7802 29.9 97.1602 28.58 97.1602C26 97.1602 24.37 95.6702 24.37 93.4002C24.37 90.5002 26.44 88.4102 29.3 88.4102C31.67 88.4102 33.24 89.8202 33.24 92.1602C33.24 92.5902 33.19 93.0101 33.11 93.3801L33.13 93.3702ZM26.52 92.0402H31.42C31.44 90.7302 30.56 90.0102 29.23 90.0102C27.9 90.0102 26.89 90.7902 26.52 92.0402Z" fill="white"></path><path d="M36.49 92.9101C36.49 90.2601 38.26 88.3701 40.64 88.3701C41.96 88.3701 43.06 88.9201 43.78 89.9301L42.65 91.1301C42.14 90.4501 41.49 90.1001 40.73 90.1001C39.3 90.1001 38.29 91.2501 38.29 92.9101C38.29 94.5701 39.3 95.7201 40.73 95.7201C41.49 95.7201 42.14 95.3701 42.65 94.6801L43.78 95.8801C43.06 96.9001 41.96 97.4501 40.63 97.4501C38.26 97.4501 36.49 95.5601 36.49 92.9101Z" fill="white"></path><path d="M50.13 95.42H46.58L45.9 97.3H44.09L47.49 88.52H49.24L52.66 97.3H50.81L50.13 95.42ZM49.58 93.88L48.37 90.52L47.16 93.88H49.58Z" fill="white"></path><path d="M58.4 97.3L56.93 94.85H55.3V97.3H53.53V88.52H56.84C58.88 88.52 60.16 89.74 60.16 91.71C60.16 93.03 59.58 93.99 58.59 94.48L60.3 97.3H58.4ZM56.74 90.18H55.3V93.24H56.74C57.82 93.24 58.36 92.66 58.36 91.71C58.36 90.76 57.82 90.18 56.74 90.18Z" fill="white"></path><path d="M67.54 95.67V97.3H61.63V88.52H67.4V90.15H63.39V92.06H66.94V93.64H63.39V95.67H67.55H67.54Z" fill="white"></path><rect x="70.34" y="89.7998" width="7.68" height="7.68" fill="white"></rect></g><defs><clipPath id="clip0_19_148"><rect width="88.14" height="97.48" fill="white"></rect></clipPath></defs></svg>