<svg width="80" height="80" viewBox="0 0 80 80" fill="none" xmlns="http://www.w3.org/2000/svg">
<g clip-path="url(#clip0_1074_6020)">
<path d="M0 0H80V80H0V0Z" stroke="white" stroke-width="0.9"/>
<path d="M66.7 51.7999L66 50.6999L65.8 52.7999C65.5 53.2999 65 53.6999 64.2 54.1999C64.8 54.0999 65.2 54.0999 65.5 54.1999C65.4 54.8999 65.2 55.5999 65 56.2999L66.2 54.1999L67.3 53.9999L66.9 52.5999L67.9 50.3999C67.5 50.9999 67.1 51.4999 66.7 51.9999V51.7999Z" fill="white"/>
<path d="M64.9 40.3C65.8 41.2 66.5 42.4 67 43.8C66.5 45.5 65.9 46.9 65.2 47.9L67.8 46C67.8 46 68.5 48.2 68.5 49.4C68.9 48.1 69.1 46.5 69.1 44.6L70.6 42.5L69 41.6C68.9 39.6 68.6 37.9 68 36.5C68 38 67.6 41 67.6 41C66.8 40.6 65.9 40.3 64.8 40.2L64.9 40.3Z" fill="white"/>
<path d="M60.0001 34.6001C60.2001 35.8001 60.2001 37.0001 60.2001 38.1001L57.6001 39.0001L60.1001 40.4001L59.8001 43.9001L61.7001 41.4001L63.8001 43.1001L62.7001 39.7001L64.2001 37.1001L61.9001 37.6001L60.1001 34.6001H60.0001Z" fill="white"/>
<path d="M64.1999 32.2001L64.8999 34.4001L65.1999 33.1001L66.4999 34.2001L65.4999 31.9001L65.8999 30.4001L64.5999 30.8001L62.9999 29.1001L63.8999 31.0001L62.3999 31.4001L64.2999 32.2001H64.1999Z" fill="white"/>
<path d="M53.9 34.0999L54.7999 36.2999L55.2999 34.9C56.0999 35.3 56.7999 35.7999 57.2999 36.2999L55.5 34.2L55.7 33H54.4L52.2999 31.2L53.4 33H51.7L53.9 34.0999Z" fill="white"/>
<path d="M55.3001 19.9001L53.7001 21.7001C52.3001 20.8001 50.7001 20.2001 49.1001 19.6001C50.4001 20.8001 51.5001 22.1001 52.4001 23.7001L49.6001 27.2001L54.4001 26.7001L57.4001 32.3001L57.1001 26.6001L60.7001 26.8001C59.3001 25.5001 57.9001 24.4001 56.5001 23.4001L55.3001 19.9001Z" fill="white"/>
<path d="M44.0001 46.6001H41.6001V55.9001H44.0001V46.6001Z" fill="white"/>
<path d="M45.8999 55.8999H48.2999V41.8999L45.8999 42.8999V55.8999Z" fill="white"/>
<path d="M44.0001 43.8L41.6001 44.8V45.8H44.0001V43.8Z" fill="white"/>
<path d="M35.4 45.5999C34.2 45.5999 33 45.9999 32.4 46.7999V41.8999L30 42.8999V55.8999H32.4V49.9999C32.4 48.3999 33.3 47.3999 34.9 47.3999C36.5 47.3999 37.4 48.0999 37.4 50.1999V55.8999H39.8V50.0999C39.8 47.0999 38.3 45.5999 35.5 45.5999H35.4Z" fill="white"/>
<path d="M22.9 54.1C20.1 54.1 18.6 52.2001 18.6 49.2001C18.6 46.2001 20.1 44.3 22.9 44.3C25.7 44.3 25.4 44.8001 26.2 45.9001L28.3 44.8C27.2 43.2 25.5 42.3 22.8 42.3C18.7 42.3 16 45.2001 16 49.2001C16 53.2001 18.6 56.1 22.8 56.1C27 56.1 27.2 55.2 28.3 53.5L26.3 52.4001C25.5 53.5001 24.4 54.1 22.8 54.1H22.9Z" fill="white"/>
<path d="M60.0001 50.7001C60.0001 48.0001 58.3001 45.6001 54.9001 45.6001C51.5001 45.6001 49.6001 47.5001 49.6001 50.9001C49.6001 54.3001 52.0001 56.2001 54.8001 56.2001C57.6001 56.2001 57.9001 55.7001 58.9001 54.9001L57.5001 53.6001C56.7001 54.1001 55.9001 54.4001 54.9001 54.4001C53.4001 54.4001 52.1001 53.6001 51.9001 51.6001H59.8001C59.8001 51.4001 59.8001 51.1001 59.8001 50.7001H60.0001ZM52.0001 49.9001C52.2001 48.3001 53.2001 47.4001 54.7001 47.4001C56.2001 47.4001 57.4001 48.5001 57.5001 49.9001H51.9001H52.0001Z" fill="white"/>
</g>
<defs>
<clipPath id="clip0_1074_6020">
<rect width="80" height="80" fill="white"/>
</clipPath>
</defs>
</svg>
