<svg width="80" height="80" viewBox="0 0 80 80" fill="none" xmlns="http://www.w3.org/2000/svg">
<g clip-path="url(#clip0_1074_6034)">
<path d="M80 0H0V80H80V0Z" fill="#E40E36"/>
<path d="M61 47.2001L60.4 46.1001L60.2 48.0001C59.9 48.4001 59.4 48.8001 58.7 49.3001C59.3 49.2001 59.7 49.2001 59.9 49.3001C59.8 50.0001 59.6 50.6001 59.4 51.2001L60.5999 49.2001L61.5999 49.0001L61.2999 47.7001L62.2 45.6001C61.9 46.1001 61.5 46.6001 61 47.1001V47.2001Z" fill="white"/>
<path d="M59.2999 36.5C60.0999 37.3 60.8 38.4 61.2 39.8C60.8 41.4 60.2 42.7 59.5 43.6L62 41.9C62 41.9 62.5999 43.9 62.5999 45.1C62.9999 43.9 63.2 42.4 63.2 40.7L64.5999 38.7L63.0999 37.8C63.0999 35.9 62.7 34.3 62.2 33C62.2 34.4 61.7999 37.2 61.7999 37.2C61.0999 36.8 60.2 36.6 59.2 36.5H59.2999Z" fill="white"/>
<path d="M54.6999 31.2001C54.8999 32.3001 54.8999 33.4001 54.7999 34.4001L52.3999 35.2001L54.7999 36.5001L54.4999 39.7001L56.2999 37.3001L58.1999 38.9001L57.0999 35.8001L58.4999 33.4001L56.3999 33.9001L54.6999 31.1001V31.2001Z" fill="white"/>
<path d="M58.7001 29L59.4001 31.1L59.7001 29.9L60.9001 30.9L59.9001 28.7999L60.3001 27.4L59.1001 27.7L57.6001 26.2L58.5001 27.9L57.1001 28.2999L58.9001 29.1L58.7001 29Z" fill="white"/>
<path d="M49.1001 30.7L49.9001 32.8L50.3001 31.5C51.0001 31.9 51.7001 32.3 52.2001 32.8L50.5001 30.8L50.7001 29.7H49.5001L47.6001 28L48.7001 29.7H47.1001L49.2001 30.7H49.1001Z" fill="white"/>
<path d="M50.3001 17.5L48.8001 19.2001C47.5001 18.4001 46.0001 17.8 44.6001 17.3C45.8001 18.4 46.9001 19.7 47.7001 21.1L45.0001 24.3L49.5001 23.9L52.3001 29.1L52.0001 23.8L55.4001 24C54.1001 22.8 52.8001 21.7 51.5001 20.9L50.4001 17.6L50.3001 17.5Z" fill="white"/>
<path d="M39.8001 42.3H37.6001V51H39.8001V42.3Z" fill="white"/>
<path d="M41.6001 50.9999H43.8001V37.8999L41.6001 38.8999V50.9999Z" fill="white"/>
<path d="M39.8001 39.8L37.6001 40.8V41.7001H39.8001V39.8Z" fill="white"/>
<path d="M31.8 41.4C30.6 41.4 29.5 41.8 29 42.5V38L26.8 39V51.1H29V45.6C29 44.1 29.8 43.2 31.3 43.2C32.8 43.2 33.6 43.9 33.6 45.8V51.1H35.8V45.7C35.8 42.9 34.4 41.5 31.8 41.5V41.4Z" fill="white"/>
<path d="M20.1999 49.2999C17.5999 49.2999 16.1999 47.5 16.1999 44.7C16.1999 41.9 17.5999 40.0999 20.1999 40.0999C22.7999 40.0999 22.4999 40.5999 23.2999 41.5999L25.2999 40.5999C24.2999 39.0999 22.5999 38.2 20.1999 38.2C16.2999 38.2 13.8999 40.9 13.8999 44.7C13.8999 48.5 16.3999 51.2 20.1999 51.2C23.9999 51.2 24.2999 50.2999 25.2999 48.7999L23.3999 47.7999C22.5999 48.7999 21.6999 49.4 20.0999 49.4L20.1999 49.2999Z" fill="white"/>
<path d="M54.7001 46.0999C54.7001 43.5999 53.2001 41.3999 50.0001 41.3999C46.8001 41.3999 45.1001 43.0999 45.1001 46.2999C45.1001 49.4999 47.3001 51.1999 49.9001 51.1999C52.5001 51.1999 52.8001 50.7999 53.8001 49.9999L52.5001 48.7999C51.8001 49.2999 51.0001 49.5999 50.1001 49.5999C48.7001 49.5999 47.5001 48.7999 47.3001 46.9999H54.7001C54.7001 46.7999 54.7001 46.4999 54.7001 46.1999V46.0999ZM47.3001 45.3999C47.5001 43.8999 48.4001 42.9999 49.9001 42.9999C51.4001 42.9999 52.4001 44.0999 52.6001 45.3999H47.4001H47.3001Z" fill="white"/>
</g>
<defs>
<clipPath id="clip0_1074_6034">
<rect width="80" height="80" fill="white"/>
</clipPath>
</defs>
</svg>
